# Made in Blockbench 5.1.4
mtllib anomalous_sledgehammer.mtl

o cube
v 0.09375 1.4375 0.09375
v 0.09375 1.4375 -0.09375
v 0.09375 1.125 0.09375
v 0.09375 1.125 -0.09375
v -0.09375 1.4375 -0.09375
v -0.09375 1.4375 0.09375
v -0.09375 1.125 -0.09375
v -0.09375 1.125 0.09375
vt 0.125 0.671875
vt 0.171875 0.671875
vt 0.171875 0.59375
vt 0.125 0.59375
vt 0.171875 0.671875
vt 0.21875 0.671875
vt 0.21875 0.59375
vt 0.171875 0.59375
vt 0.375 1
vt 0.421875 1
vt 0.421875 0.921875
vt 0.375 0.921875
vt 0.375 0.921875
vt 0.421875 0.921875
vt 0.421875 0.84375
vt 0.375 0.84375
vt 0.46875 0.640625
vt 0.421875 0.640625
vt 0.421875 0.6875
vt 0.46875 0.6875
vt 0.234375 0.546875
vt 0.1875 0.546875
vt 0.1875 0.5
vt 0.234375 0.5
vn 0 0 -1
vn 1 0 0
vn 0 0 1
vn -1 0 0
vn 0 1 0
vn 0 -1 0
usemtl m_9b34ceee-209d-bb5b-f8b8-8a3dd3a76a11
f 4/4/1 7/3/1 5/2/1 2/1/1
f 3/8/2 4/7/2 2/6/2 1/5/2
f 8/12/3 3/11/3 1/10/3 6/9/3
f 7/16/4 8/15/4 6/14/4 5/13/4
f 6/20/5 1/19/5 2/18/5 5/17/5
f 7/24/6 4/23/6 3/22/6 8/21/6
o cube
v 0.10701769464212547 0.932526781591142 0.08687595988590704
v 0.07732745183538765 0.9352503985520064 0.09623725748439445
v 0.10649818270954113 0.9263005647280685 0.08703976136905907
v 0.07680793990280331 0.9290241816889329 0.09640105896754647
v 0.08014656870574019 0.9352503985520064 0.10517835389765899
v 0.10983681151247801 0.932526781591142 0.09581705629917159
v 0.07962705677315585 0.9290241816889329 0.10534215538081101
v 0.10931729957989367 0.9263005647280685 0.09598085778232361
vt 0.125 0.5
vt 0.140625 0.5
vt 0.140625 0.484375
vt 0.125 0.484375
vt 0.125 0.75
vt 0.1875 0.75
vt 0.1875 0.734375
vt 0.125 0.734375
vt 0.5 0.875
vt 0.515625 0.875
vt 0.515625 0.859375
vt 0.5 0.859375
vt 0.25 0.875
vt 0.3125 0.875
vt 0.3125 0.859375
vt 0.25 0.859375
vt 0.265625 0.6875
vt 0.25 0.6875
vt 0.25 0.75
vt 0.265625 0.75
vt 0.015625 0.625
vt 0 0.625
vt 0 0.5625
vt 0.015625 0.5625
vn -0.9500877698156099 0.08715574274765832 0.2995615231515968
vn -0.3007057995042736 6.591949208711864e-17 -0.9537169507482269
vn 0.9500877698156099 -0.08715574274765832 -0.2995615231515968
vn 0.3007057995042736 -6.591949208711864e-17 0.9537169507482269
vn 0.08312190921349355 0.9961946980917455 -0.02620823730432335
vn -0.08312190921349355 -0.9961946980917455 0.02620823730432335
usemtl m_56bd5c19-06d1-8de3-e314-18b0770c939f
f 12/28/7 15/27/7 13/26/7 10/25/7
f 11/32/8 12/31/8 10/30/8 9/29/8
f 16/36/9 11/35/9 9/34/9 14/33/9
f 15/40/10 16/39/10 14/38/10 13/37/10
f 14/44/11 9/43/11 10/42/11 13/41/11
f 15/48/12 12/47/12 11/46/12 16/45/12
o cube
v 0.10894862510537492 0.9008509738836021 0.08135215957533733
v 0.06144423661459459 0.905208761020985 0.09633023573291712
v 0.10531204157728459 0.8572674558420883 0.08249876995740148
v 0.05780765308650425 0.8616252429794712 0.09747684611498127
v 0.06708247035529974 0.905208761020985 0.11421242855944642
v 0.11458685884608008 0.9008509738836021 0.09923435240186664
v 0.06344588682720939 0.8616252429794712 0.11535903894151056
v 0.11095027531798973 0.8572674558420883 0.10038096278393077
vt 0 0.75
vt 0.0390625 0.75
vt 0.0390625 0.6640625
vt 0 0.6640625
vt 0 1
vt 0.1015625 1
vt 0.1015625 0.9140625
vt 0 0.9140625
vt 0.25 1
vt 0.2890625 1
vt 0.2890625 0.9140625
vt 0.25 0.9140625
vt 0 0.875
vt 0.1015625 0.875
vt 0.1015625 0.7890625
vt 0 0.7890625
vt 0.1640625 0.8984375
vt 0.125 0.8984375
vt 0.125 1
vt 0.1640625 1
vt 0.1640625 0.875
vt 0.125 0.875
vt 0.125 0.7734375
vt 0.1640625 0.7734375
vn -0.9500877698156099 0.08715574274765832 0.2995615231515968
vn -0.3007057995042736 6.591949208711864e-17 -0.9537169507482269
vn 0.9500877698156099 -0.08715574274765832 -0.2995615231515968
vn 0.3007057995042736 -6.591949208711864e-17 0.9537169507482269
vn 0.08312190921349355 0.9961946980917455 -0.02620823730432335
vn -0.08312190921349355 -0.9961946980917455 0.02620823730432335
usemtl m_56bd5c19-06d1-8de3-e314-18b0770c939f
f 20/52/13 23/51/13 21/50/13 18/49/13
f 19/56/14 20/55/14 18/54/14 17/53/14
f 24/60/15 19/59/15 17/58/15 22/57/15
f 23/64/16 24/63/16 22/62/16 21/61/16
f 22/68/17 17/67/17 18/66/17 21/65/17
f 23/72/18 20/71/18 19/70/18 24/69/18
o cube
v 0.07383891562212949 0.9292965433850193 0.09733718872739522
v 0.06790086706078183 0.9298412667771921 0.09920944824709273
v 0.07176086789179215 0.9043916759327257 0.0979923946600033
v 0.06582281933044451 0.9049363993248987 0.0998646541797008
v 0.07071998393113438 0.9298412667771921 0.10815054466035727
v 0.07665803249248203 0.9292965433850193 0.10627828514065976
v 0.06864193620079703 0.9049363993248987 0.10880575059296535
v 0.0745799847621447 0.9043916759327257 0.10693349107326786
vt 0.375 1
vt 0.390625 1
vt 0.390625 0.953125
vt 0.375 0.953125
vt 0.125 0.625
vt 0.140625 0.625
vt 0.140625 0.578125
vt 0.125 0.578125
vt 0.375 0.875
vt 0.390625 0.875
vt 0.390625 0.828125
vt 0.375 0.828125
vt 0.25 0.625
vt 0.265625 0.625
vt 0.265625 0.578125
vt 0.25 0.578125
vt 0.265625 0.484375
vt 0.25 0.484375
vt 0.25 0.5
vt 0.265625 0.5
vt 0.515625 0.75
vt 0.5 0.75
vt 0.5 0.734375
vt 0.515625 0.734375
vn -0.9500877698156099 0.08715574274765832 0.2995615231515968
vn -0.3007057995042736 6.591949208711864e-17 -0.9537169507482269
vn 0.9500877698156099 -0.08715574274765832 -0.2995615231515968
vn 0.3007057995042736 -6.591949208711864e-17 0.9537169507482269
vn 0.08312190921349355 0.9961946980917455 -0.02620823730432335
vn -0.08312190921349355 -0.9961946980917455 0.02620823730432335
usemtl m_56bd5c19-06d1-8de3-e314-18b0770c939f
f 28/76/19 31/75/19 29/74/19 26/73/19
f 27/80/20 28/79/20 26/78/20 25/77/20
f 32/84/21 27/83/21 25/82/21 30/81/21
f 31/88/22 32/87/22 30/86/22 29/85/22
f 30/92/23 25/91/23 26/90/23 29/89/23
f 31/96/24 28/95/24 27/94/24 32/93/24
o cube
v 0.07732745183538765 0.9352503985520064 0.09623725748439445
v 0.07138940327404 0.9357951219441792 0.09810951700409196
v 0.07680793990280331 0.9290241816889329 0.09640105896754647
v 0.07086989134145566 0.9295689050811058 0.09827331848724398
v 0.07420852014439254 0.9357951219441792 0.1070506134173565
v 0.08014656870574019 0.9352503985520064 0.10517835389765899
v 0.0736890082118082 0.9295689050811058 0.10721441490050852
v 0.07962705677315585 0.9290241816889329 0.10534215538081101
vt 0.375 0.5
vt 0.390625 0.5
vt 0.390625 0.484375
vt 0.375 0.484375
vt 0.5 0.625
vt 0.515625 0.625
vt 0.515625 0.609375
vt 0.5 0.609375
vt 0.5 0.5
vt 0.515625 0.5
vt 0.515625 0.484375
vt 0.5 0.484375
vt 0 0.375
vt 0.015625 0.375
vt 0.015625 0.359375
vt 0 0.359375
vt 0.640625 0.984375
vt 0.625 0.984375
vt 0.625 1
vt 0.640625 1
vt 0.140625 0.375
vt 0.125 0.375
vt 0.125 0.359375
vt 0.140625 0.359375
vn -0.9500877698156099 0.08715574274765832 0.2995615231515968
vn -0.3007057995042736 6.591949208711864e-17 -0.9537169507482269
vn 0.9500877698156099 -0.08715574274765832 -0.2995615231515968
vn 0.3007057995042736 -6.591949208711864e-17 0.9537169507482269
vn 0.08312190921349355 0.9961946980917455 -0.02620823730432335
vn -0.08312190921349355 -0.9961946980917455 0.02620823730432335
usemtl m_56bd5c19-06d1-8de3-e314-18b0770c939f
f 36/100/25 39/99/25 37/98/25 34/97/25
f 35/104/26 36/103/26 34/102/26 33/101/26
f 40/108/27 35/107/27 33/106/27 38/105/27
f 39/112/28 40/111/28 38/110/28 37/109/28
f 38/116/29 33/115/29 34/114/29 37/113/29
f 39/120/30 36/119/30 35/118/30 40/117/30
o cube
v 0.10946720699021495 0.9260282030319821 0.08610363160921031
v 0.10352915842886731 0.926572926424155 0.08797589112890782
v 0.10738915925987763 0.9011233355796886 0.0867588375418184
v 0.10145111069852997 0.9016680589718614 0.0886310970615159
v 0.10634827529921984 0.926572926424155 0.09691698754217236
v 0.1122863238605675 0.9260282030319821 0.09504472802247485
v 0.10427022756888252 0.9016680589718614 0.09757219347478044
v 0.11020827613023015 0.9011233355796886 0.09569993395508294
vt 0.375 0.75
vt 0.390625 0.75
vt 0.390625 0.703125
vt 0.375 0.703125
vt 0.375 0.625
vt 0.390625 0.625
vt 0.390625 0.578125
vt 0.375 0.578125
vt 0 0.5
vt 0.015625 0.5
vt 0.015625 0.453125
vt 0 0.453125
vt 0.5 1
vt 0.515625 1
vt 0.515625 0.953125
vt 0.5 0.953125
vt 0.640625 0.859375
vt 0.625 0.859375
vt 0.625 0.875
vt 0.640625 0.875
vt 0.265625 0.375
vt 0.25 0.375
vt 0.25 0.359375
vt 0.265625 0.359375
vn -0.9500877698156099 0.08715574274765832 0.2995615231515968
vn -0.3007057995042736 6.591949208711864e-17 -0.9537169507482269
vn 0.9500877698156099 -0.08715574274765832 -0.2995615231515968
vn 0.3007057995042736 -6.591949208711864e-17 0.9537169507482269
vn 0.08312190921349355 0.9961946980917455 -0.02620823730432335
vn -0.08312190921349355 -0.9961946980917455 0.02620823730432335
usemtl m_56bd5c19-06d1-8de3-e314-18b0770c939f
f 44/124/31 47/123/31 45/122/31 42/121/31
f 43/128/32 44/127/32 42/126/32 41/125/32
f 48/132/33 43/131/33 41/130/33 46/129/33
f 47/136/34 48/135/34 46/134/34 45/133/34
f 46/140/35 41/139/35 42/138/35 45/137/35
f 47/144/36 44/143/36 43/142/36 48/141/36
o cube
v -0.03529281281674688 0.8936000993851074 -0.08066008868273133
v -0.005048578776441777 0.8865036408870094 -0.08404964383053787
v -0.03683351743472066 0.8877114957034017 -0.08207891776333129
v -0.006589283394415564 0.8806150372053035 -0.08546847291113782
v -0.005523350867786395 0.8888140585852153 -0.09312307683690857
v -0.035767584908091496 0.8959105170833135 -0.08973352168910204
v -0.007064055485760175 0.8829254549035096 -0.09454190591750852
v -0.037308289526065276 0.8900219134016076 -0.09115235076970199
vt 0.125 0.5
vt 0.140625 0.5
vt 0.140625 0.484375
vt 0.125 0.484375
vt 0.125 0.75
vt 0.1875 0.75
vt 0.1875 0.734375
vt 0.125 0.734375
vt 0.5 0.875
vt 0.515625 0.875
vt 0.515625 0.859375
vt 0.5 0.859375
vt 0.25 0.875
vt 0.3125 0.875
vt 0.3125 0.859375
vt 0.25 0.859375
vt 0.265625 0.6875
vt 0.25 0.6875
vt 0.25 0.75
vt 0.265625 0.75
vt 0.015625 0.625
vt 0 0.625
vt 0 0.5625
vt 0.015625 0.5625
vn 0.9678154892897632 -0.22708667193913828 -0.10846576472980902
vn 0.050642356410092106 -0.2464445544753022 0.9678328540128729
vn -0.9678154892897632 0.22708667193913828 0.10846576472980902
vn -0.050642356410092106 0.2464445544753022 -0.9678328540128729
vn 0.246512738875802 0.9421765890729168 0.2270126528959888
vn -0.246512738875802 -0.9421765890729168 -0.2270126528959888
usemtl m_56bd5c19-06d1-8de3-e314-18b0770c939f
f 52/148/37 55/147/37 53/146/37 50/145/37
f 51/152/38 52/151/38 50/150/38 49/149/38
f 56/156/39 51/155/39 49/154/39 54/153/39
f 55/160/40 56/159/40 54/158/40 53/157/40
f 54/164/41 49/163/41 50/162/41 53/161/41
f 55/168/42 52/167/42 51/166/42 56/165/42
o cube
v -0.048807796669004436 0.8644211638270954 -0.08253960655298431
v -0.00041702220451623334 0.8530668302301385 -0.08796289478947478
v -0.05959272899482081 0.8232009380551552 -0.09247141011718388
v -0.011201954530332608 0.8118466044581982 -0.09789469835367433
v -0.0013665663872054618 0.8576876656265504 -0.10610976080221618
v -0.049757340851693664 0.8690419992235074 -0.10068647256572573
v -0.012151498713021836 0.8164674398546102 -0.11604156436641573
v -0.06054227317751004 0.8278217734515672 -0.11061827612992528
vt 0 0.75
vt 0.0390625 0.75
vt 0.0390625 0.6640625
vt 0 0.6640625
vt 0 1
vt 0.1015625 1
vt 0.1015625 0.9140625
vt 0 0.9140625
vt 0.25 1
vt 0.2890625 1
vt 0.2890625 0.9140625
vt 0.25 0.9140625
vt 0 0.875
vt 0.1015625 0.875
vt 0.1015625 0.7890625
vt 0 0.7890625
vt 0.1640625 0.8984375
vt 0.125 0.8984375
vt 0.125 1
vt 0.1640625 1
vt 0.1640625 0.875
vt 0.125 0.875
vt 0.125 0.7734375
vt 0.1640625 0.7734375
vn 0.9678154892897632 -0.22708667193913828 -0.10846576472980902
vn 0.050642356410092106 -0.2464445544753022 0.9678328540128729
vn -0.9678154892897632 0.22708667193913828 0.10846576472980902
vn -0.050642356410092106 0.2464445544753022 -0.9678328540128729
vn 0.246512738875802 0.9421765890729168 0.2270126528959888
vn -0.246512738875802 -0.9421765890729168 -0.2270126528959888
usemtl m_56bd5c19-06d1-8de3-e314-18b0770c939f
f 60/172/43 63/171/43 61/170/43 58/169/43
f 59/176/44 60/175/44 58/174/44 57/173/44
f 64/180/45 59/179/45 57/178/45 62/177/45
f 63/184/46 64/183/46 62/182/46 61/181/46
f 62/188/47 57/187/47 58/186/47 61/185/47
f 63/192/48 60/191/48 59/190/48 64/189/48
o cube
v -0.0035648599903850622 0.8799053913554937 -0.08580742842591847
v 0.0024839868176760455 0.8784860996558741 -0.08648533945547979
v -0.009727678462280093 0.856350976628671 -0.09148274474831816
v -0.003678831654218985 0.8549316849290514 -0.09216065577787949
v 0.0020092147263314278 0.8807965173540802 -0.09555877246185049
v -0.00403963208172968 0.8822158090536998 -0.09488086143228917
v -0.004153603745563599 0.8572421026272573 -0.10123408878425019
v -0.010202450553624703 0.8586613943268769 -0.10055617775468888
vt 0.375 1
vt 0.390625 1
vt 0.390625 0.953125
vt 0.375 0.953125
vt 0.125 0.625
vt 0.140625 0.625
vt 0.140625 0.578125
vt 0.125 0.578125
vt 0.375 0.875
vt 0.390625 0.875
vt 0.390625 0.828125
vt 0.375 0.828125
vt 0.25 0.625
vt 0.265625 0.625
vt 0.265625 0.578125
vt 0.25 0.578125
vt 0.265625 0.484375
vt 0.25 0.484375
vt 0.25 0.5
vt 0.265625 0.5
vt 0.515625 0.75
vt 0.5 0.75
vt 0.5 0.734375
vt 0.515625 0.734375
vn 0.9678154892897632 -0.22708667193913828 -0.10846576472980902
vn 0.050642356410092106 -0.2464445544753022 0.9678328540128729
vn -0.9678154892897632 0.22708667193913828 0.10846576472980902
vn -0.050642356410092106 0.2464445544753022 -0.9678328540128729
vn 0.246512738875802 0.9421765890729168 0.2270126528959888
vn -0.246512738875802 -0.9421765890729168 -0.2270126528959888
usemtl m_56bd5c19-06d1-8de3-e314-18b0770c939f
f 68/196/49 71/195/49 69/194/49 66/193/49
f 67/200/50 68/199/50 66/198/50 65/197/50
f 72/204/51 67/203/51 65/202/51 70/201/51
f 71/208/52 72/207/52 70/206/52 69/205/52
f 70/212/53 65/211/53 66/210/53 69/209/53
f 71/216/54 68/215/54 67/214/54 72/213/54
o cube
v -0.0050485787764418324 0.8865036408870094 -0.08404964383053787
v 0.0010002680316192752 0.8850843491873898 -0.08472755486009917
v -0.006589283394415616 0.8806150372053037 -0.08546847291113781
v -0.0005404365863545119 0.879195745505684 -0.08614638394069912
v 0.0005254959402746576 0.8873947668855957 -0.09380098786646988
v -0.005523350867786447 0.8888140585852153 -0.09312307683690856
v -0.001015208677699126 0.88150616320389 -0.09521981694706982
v -0.00706405548576023 0.8829254549035096 -0.09454190591750851
vt 0.375 0.5
vt 0.390625 0.5
vt 0.390625 0.484375
vt 0.375 0.484375
vt 0.5 0.625
vt 0.515625 0.625
vt 0.515625 0.609375
vt 0.5 0.609375
vt 0.5 0.5
vt 0.515625 0.5
vt 0.515625 0.484375
vt 0.5 0.484375
vt 0 0.375
vt 0.015625 0.375
vt 0.015625 0.359375
vt 0 0.359375
vt 0.640625 0.984375
vt 0.625 0.984375
vt 0.625 1
vt 0.640625 1
vt 0.140625 0.375
vt 0.125 0.375
vt 0.125 0.359375
vt 0.140625 0.359375
vn 0.9678154892897632 -0.22708667193913828 -0.10846576472980902
vn 0.050642356410092106 -0.2464445544753022 0.9678328540128729
vn -0.9678154892897632 0.22708667193913828 0.10846576472980902
vn -0.050642356410092106 0.2464445544753022 -0.9678328540128729
vn 0.246512738875802 0.9421765890729168 0.2270126528959888
vn -0.246512738875802 -0.9421765890729168 -0.2270126528959888
usemtl m_56bd5c19-06d1-8de3-e314-18b0770c939f
f 76/220/55 79/219/55 77/218/55 74/217/55
f 75/224/56 76/223/56 74/222/56 73/221/56
f 80/228/57 75/227/57 73/226/57 78/225/57
f 79/232/58 80/231/58 78/230/58 77/229/58
f 78/236/59 73/235/59 74/234/59 77/233/59
f 79/240/60 76/239/60 75/238/60 80/237/60
o cube
v -0.03985794083875116 0.8884211415532115 -0.08173996224855062
v -0.033809094030690164 0.8870018498535919 -0.08241787327811194
v -0.046020759310646184 0.8648667268263887 -0.08741527857095033
v -0.03997191250258519 0.863447435126769 -0.08809318960051163
v -0.034283866122034774 0.8893122675517978 -0.09149130628448264
v -0.04033271293009577 0.8907315592514174 -0.09081339525492134
v -0.040446684593929805 0.865757852824975 -0.09716662260688234
v -0.0464955314019908 0.8671771445245946 -0.09648871157732103
vt 0.375 0.75
vt 0.390625 0.75
vt 0.390625 0.703125
vt 0.375 0.703125
vt 0.375 0.625
vt 0.390625 0.625
vt 0.390625 0.578125
vt 0.375 0.578125
vt 0 0.5
vt 0.015625 0.5
vt 0.015625 0.453125
vt 0 0.453125
vt 0.5 1
vt 0.515625 1
vt 0.515625 0.953125
vt 0.5 0.953125
vt 0.640625 0.859375
vt 0.625 0.859375
vt 0.625 0.875
vt 0.640625 0.875
vt 0.265625 0.375
vt 0.25 0.375
vt 0.25 0.359375
vt 0.265625 0.359375
vn 0.9678154892897632 -0.22708667193913828 -0.10846576472980902
vn 0.050642356410092106 -0.2464445544753022 0.9678328540128729
vn -0.9678154892897632 0.22708667193913828 0.10846576472980902
vn -0.050642356410092106 0.2464445544753022 -0.9678328540128729
vn 0.246512738875802 0.9421765890729168 0.2270126528959888
vn -0.246512738875802 -0.9421765890729168 -0.2270126528959888
usemtl m_56bd5c19-06d1-8de3-e314-18b0770c939f
f 84/244/61 87/243/61 85/242/61 82/241/61
f 83/248/62 84/247/62 82/246/62 81/245/62
f 88/252/63 83/251/63 81/250/63 86/249/63
f 87/256/64 88/255/64 86/254/64 85/253/64
f 86/260/65 81/259/65 82/258/65 85/257/65
f 87/264/66 84/263/66 83/262/66 88/261/66
o cube
v 0.09375 0.78125 0.09375
v 0.09375 0.78125 -0.09375
v 0.09375 0.6875 0.09375
v 0.09375 0.6875 -0.09375
v -0.09375 0.78125 -0.09375
v -0.09375 0.78125 0.09375
v -0.09375 0.6875 -0.09375
v -0.09375 0.6875 0.09375
vt 0.46875 0.671875
vt 0.515625 0.671875
vt 0.515625 0.640625
vt 0.46875 0.640625
vt 0.1875 0.5
vt 0.234375 0.5
vt 0.234375 0.46875
vt 0.1875 0.46875
vt 0.234375 0.5
vt 0.28125 0.5
vt 0.28125 0.46875
vt 0.234375 0.46875
vt 0.28125 0.5
vt 0.328125 0.5
vt 0.328125 0.46875
vt 0.28125 0.46875
vt 0.5 0.59375
vt 0.453125 0.59375
vt 0.453125 0.640625
vt 0.5 0.640625
vt 0.5 0.59375
vt 0.453125 0.59375
vt 0.453125 0.546875
vt 0.5 0.546875
vn 0 0 -1
vn 1 0 0
vn 0 0 1
vn -1 0 0
vn 0 1 0
vn 0 -1 0
usemtl m_9b34ceee-209d-bb5b-f8b8-8a3dd3a76a11
f 92/268/67 95/267/67 93/266/67 90/265/67
f 91/272/68 92/271/68 90/270/68 89/269/68
f 96/276/69 91/275/69 89/274/69 94/273/69
f 95/280/70 96/279/70 94/278/70 93/277/70
f 94/284/71 89/283/71 90/282/71 93/281/71
f 95/288/72 92/287/72 91/286/72 96/285/72
o cube
v 0.09999999999999998 0.7828124999999999 0.09999999999999998
v 0.09999999999999998 0.7828124999999999 -0.09999999999999998
v 0.09999999999999998 0.75 0.09999999999999998
v 0.09999999999999998 0.75 -0.09999999999999998
v -0.09999999999999998 0.7828124999999999 -0.09999999999999998
v -0.09999999999999998 0.7828124999999999 0.09999999999999998
v -0.09999999999999998 0.75 -0.09999999999999998
v -0.09999999999999998 0.75 0.09999999999999998
vt 0.46875 0.671875
vt 0.515625 0.671875
vt 0.515625 0.640625
vt 0.46875 0.640625
vt 0.1875 0.5
vt 0.234375 0.5
vt 0.234375 0.46875
vt 0.1875 0.46875
vt 0.234375 0.5
vt 0.28125 0.5
vt 0.28125 0.46875
vt 0.234375 0.46875
vt 0.28125 0.5
vt 0.328125 0.5
vt 0.328125 0.46875
vt 0.28125 0.46875
vt 0.5 0.59375
vt 0.453125 0.59375
vt 0.453125 0.640625
vt 0.5 0.640625
vt 0.5 0.59375
vt 0.453125 0.59375
vt 0.453125 0.546875
vt 0.5 0.546875
vn 0 0 -1
vn 1 0 0
vn 0 0 1
vn -1 0 0
vn 0 1 0
vn 0 -1 0
usemtl m_9b34ceee-209d-bb5b-f8b8-8a3dd3a76a11
f 100/292/73 103/291/73 101/290/73 98/289/73
f 99/296/74 100/295/74 98/294/74 97/293/74
f 104/300/75 99/299/75 97/298/75 102/297/75
f 103/304/76 104/303/76 102/302/76 101/301/76
f 102/308/77 97/307/77 98/306/77 101/305/77
f 103/312/78 100/311/78 99/310/78 104/309/78
o cube
v 0.09999999999999998 1.1515625000000003 0.09999999999999998
v 0.09999999999999998 1.1515625000000003 -0.09999999999999998
v 0.09999999999999998 1.11875 0.09999999999999998
v 0.09999999999999998 1.11875 -0.09999999999999998
v -0.09999999999999998 1.1515625000000003 -0.09999999999999998
v -0.09999999999999998 1.1515625000000003 0.09999999999999998
v -0.09999999999999998 1.11875 -0.09999999999999998
v -0.09999999999999998 1.11875 0.09999999999999998
vt 0.46875 0.671875
vt 0.515625 0.671875
vt 0.515625 0.640625
vt 0.46875 0.640625
vt 0.1875 0.5
vt 0.234375 0.5
vt 0.234375 0.46875
vt 0.1875 0.46875
vt 0.234375 0.5
vt 0.28125 0.5
vt 0.28125 0.46875
vt 0.234375 0.46875
vt 0.28125 0.5
vt 0.328125 0.5
vt 0.328125 0.46875
vt 0.28125 0.46875
vt 0.5 0.59375
vt 0.453125 0.59375
vt 0.453125 0.640625
vt 0.5 0.640625
vt 0.5 0.59375
vt 0.453125 0.59375
vt 0.453125 0.546875
vt 0.5 0.546875
vn 0 0 -1
vn 1 0 0
vn 0 0 1
vn -1 0 0
vn 0 1 0
vn 0 -1 0
usemtl m_9b34ceee-209d-bb5b-f8b8-8a3dd3a76a11
f 108/316/79 111/315/79 109/314/79 106/313/79
f 107/320/80 108/319/80 106/318/80 105/317/80
f 112/324/81 107/323/81 105/322/81 110/321/81
f 111/328/82 112/327/82 110/326/82 109/325/82
f 110/332/83 105/331/83 106/330/83 109/329/83
f 111/336/84 108/335/84 107/334/84 112/333/84
o cube
v 0.08750000000000002 1.5625 0.08750000000000002
v 0.08750000000000002 1.5625 -0.08750000000000002
v 0.08750000000000002 1.4375 0.08750000000000002
v 0.08750000000000002 1.4375 -0.08750000000000002
v -0.08750000000000002 1.5625 -0.08750000000000002
v -0.08750000000000002 1.5625 0.08750000000000002
v -0.08750000000000002 1.4375 -0.08750000000000002
v -0.08750000000000002 1.4375 0.08750000000000002
vt 0.5 0.640625
vt 0.546875 0.640625
vt 0.546875 0.609375
vt 0.5 0.609375
vt 0.5 0.609375
vt 0.546875 0.609375
vt 0.546875 0.578125
vt 0.5 0.578125
vt 0.421875 0.5
vt 0.46875 0.5
vt 0.46875 0.46875
vt 0.421875 0.46875
vt 0.5 0.578125
vt 0.546875 0.578125
vt 0.546875 0.546875
vt 0.5 0.546875
vt 0.5 0.5
vt 0.453125 0.5
vt 0.453125 0.546875
vt 0.5 0.546875
vt 0.046875 0.53125
vt 0 0.53125
vt 0 0.484375
vt 0.046875 0.484375
vn 0 0 -1
vn 1 0 0
vn 0 0 1
vn -1 0 0
vn 0 1 0
vn 0 -1 0
usemtl m_9b34ceee-209d-bb5b-f8b8-8a3dd3a76a11
f 116/340/85 119/339/85 117/338/85 114/337/85
f 115/344/86 116/343/86 114/342/86 113/341/86
f 120/348/87 115/347/87 113/346/87 118/345/87
f 119/352/88 120/351/88 118/350/88 117/349/88
f 118/356/89 113/355/89 114/354/89 117/353/89
f 119/360/90 116/359/90 115/358/90 120/357/90
o cube
v 0.11875000000000002 1.75 0.3375
v 0.11875000000000002 1.75 -0.3375
v 0.11875000000000002 1.46875 0.3375
v 0.11875000000000002 1.46875 -0.3375
v -0.11875000000000002 1.75 -0.3375
v -0.11875000000000002 1.75 0.3375
v -0.11875000000000002 1.46875 -0.3375
v -0.11875000000000002 1.46875 0.3375
vt 0.1875 0.828125
vt 0.25 0.828125
vt 0.25 0.7578125
vt 0.1875 0.7578125
vt 0 1
vt 0.171875 1
vt 0.171875 0.9296875
vt 0 0.9296875
vt 0.25 1
vt 0.3125 1
vt 0.3125 0.9296875
vt 0.25 0.9296875
vt 0 0.921875
vt 0.171875 0.921875
vt 0.171875 0.8515625
vt 0 0.8515625
vt 0.0625 0.671875
vt 0 0.671875
vt 0 0.84375
vt 0.0625 0.84375
vt 0.125 0.84375
vt 0.0625 0.84375
vt 0.0625 0.671875
vt 0.125 0.671875
vn 0 0 -1
vn 1 0 0
vn 0 0 1
vn -1 0 0
vn 0 1 0
vn 0 -1 0
usemtl m_9b34ceee-209d-bb5b-f8b8-8a3dd3a76a11
f 124/364/91 127/363/91 125/362/91 122/361/91
f 123/368/92 124/367/92 122/366/92 121/365/92
f 128/372/93 123/371/93 121/370/93 126/369/93
f 127/376/94 128/375/94 126/374/94 125/373/94
f 126/380/95 121/379/95 122/378/95 125/377/95
f 127/384/96 124/383/96 123/382/96 128/381/96
o cube
v 0.08906250000000004 1.5625 0.006249999999999978
v 0.08906250000000004 1.5625 -0.006249999999999978
v 0.08906250000000004 1.4375 0.006249999999999978
v 0.08906250000000004 1.4375 -0.006249999999999978
v -0.08906250000000004 1.5625 -0.006249999999999978
v -0.08906250000000004 1.5625 0.006249999999999978
v -0.08906250000000004 1.4375 -0.006249999999999978
v -0.08906250000000004 1.4375 0.006249999999999978
vt 0.5 0.546875
vt 0.546875 0.546875
vt 0.546875 0.515625
vt 0.5 0.515625
vt 0.28125 0.421875
vt 0.2890625 0.421875
vt 0.2890625 0.390625
vt 0.28125 0.390625
vt 0.46875 0.5
vt 0.515625 0.5
vt 0.515625 0.46875
vt 0.46875 0.46875
vt 0.296875 0.421875
vt 0.3046875 0.421875
vt 0.3046875 0.390625
vt 0.296875 0.390625
vt 0.21875 0.4296875
vt 0.171875 0.4296875
vt 0.171875 0.4375
vt 0.21875 0.4375
vt 0.609375 0.8125
vt 0.5625 0.8125
vt 0.5625 0.8046875
vt 0.609375 0.8046875
vn 0 0 -1
vn 1 0 0
vn 0 0 1
vn -1 0 0
vn 0 1 0
vn 0 -1 0
usemtl m_9b34ceee-209d-bb5b-f8b8-8a3dd3a76a11
f 132/388/97 135/387/97 133/386/97 130/385/97
f 131/392/98 132/391/98 130/390/98 129/389/98
f 136/396/99 131/395/99 129/394/99 134/393/99
f 135/400/100 136/399/100 134/398/100 133/397/100
f 134/404/101 129/403/101 130/402/101 133/401/101
f 135/408/102 132/407/102 131/406/102 136/405/102
o cube
v 0.006249999999999978 1.5625 0.08906250000000004
v 0.006249999999999978 1.5625 -0.08906250000000004
v 0.006249999999999978 1.4375 0.08906250000000004
v 0.006249999999999978 1.4375 -0.08906250000000004
v -0.006249999999999978 1.5625 -0.08906250000000004
v -0.006249999999999978 1.5625 0.08906250000000004
v -0.006249999999999978 1.4375 -0.08906250000000004
v -0.006249999999999978 1.4375 0.08906250000000004
vt 0.578125 0.6875
vt 0.5859375 0.6875
vt 0.5859375 0.65625
vt 0.578125 0.65625
vt 0 0.484375
vt 0.046875 0.484375
vt 0.046875 0.453125
vt 0 0.453125
vt 0.578125 0.65625
vt 0.5859375 0.65625
vt 0.5859375 0.625
vt 0.578125 0.625
vt 0.515625 1
vt 0.5625 1
vt 0.5625 0.96875
vt 0.515625 0.96875
vt 0.5703125 0.75
vt 0.5625 0.75
vt 0.5625 0.796875
vt 0.5703125 0.796875
vt 0.2265625 0.4375
vt 0.21875 0.4375
vt 0.21875 0.390625
vt 0.2265625 0.390625
vn 0 0 -1
vn 1 0 0
vn 0 0 1
vn -1 0 0
vn 0 1 0
vn 0 -1 0
usemtl m_9b34ceee-209d-bb5b-f8b8-8a3dd3a76a11
f 140/412/103 143/411/103 141/410/103 138/409/103
f 139/416/104 140/415/104 138/414/104 137/413/104
f 144/420/105 139/419/105 137/418/105 142/417/105
f 143/424/106 144/423/106 142/422/106 141/421/106
f 142/428/107 137/427/107 138/426/107 141/425/107
f 143/432/108 140/431/108 139/430/108 144/429/108
o cube
v 0.009375000000000022 0.5 0.09062499999999996
v 0.009375000000000022 0.5 -0.09062499999999996
v 0.009375000000000022 0.1875 0.09062499999999996
v 0.009375000000000022 0.1875 -0.09062499999999996
v -0.009375000000000022 0.5 -0.09062499999999996
v -0.009375000000000022 0.5 0.09062499999999996
v -0.009375000000000022 0.1875 -0.09062499999999996
v -0.009375000000000022 0.1875 0.09062499999999996
vt 0.0625 0.453125
vt 0.0703125 0.453125
vt 0.0703125 0.375
vt 0.0625 0.375
vt 0.359375 0.609375
vt 0.40625 0.609375
vt 0.40625 0.53125
vt 0.359375 0.53125
vt 0.078125 0.453125
vt 0.0859375 0.453125
vt 0.0859375 0.375
vt 0.078125 0.375
vt 0.09375 0.59375
vt 0.140625 0.59375
vt 0.140625 0.515625
vt 0.09375 0.515625
vt 0.2421875 0.390625
vt 0.234375 0.390625
vt 0.234375 0.4375
vt 0.2421875 0.4375
vt 0.2578125 0.4375
vt 0.25 0.4375
vt 0.25 0.390625
vt 0.2578125 0.390625
vn 0 0 -1
vn 1 0 0
vn 0 0 1
vn -1 0 0
vn 0 1 0
vn 0 -1 0
usemtl m_9b34ceee-209d-bb5b-f8b8-8a3dd3a76a11
f 148/436/109 151/435/109 149/434/109 146/433/109
f 147/440/110 148/439/110 146/438/110 145/437/110
f 152/444/111 147/443/111 145/442/111 150/441/111
f 151/448/112 152/447/112 150/446/112 149/445/112
f 150/452/113 145/451/113 146/450/113 149/449/113
f 151/456/114 148/455/114 147/454/114 152/453/114
o cube
v 0.09062499999999996 0.5 0.009375000000000022
v 0.09062499999999996 0.5 -0.009375000000000022
v 0.09062499999999996 0.1875 0.009375000000000022
v 0.09062499999999996 0.1875 -0.009375000000000022
v -0.09062499999999996 0.5 -0.009375000000000022
v -0.09062499999999996 0.5 0.009375000000000022
v -0.09062499999999996 0.1875 -0.009375000000000022
v -0.09062499999999996 0.1875 0.009375000000000022
vt 0.140625 0.59375
vt 0.1875 0.59375
vt 0.1875 0.515625
vt 0.140625 0.515625
vt 0.328125 0.453125
vt 0.3359375 0.453125
vt 0.3359375 0.375
vt 0.328125 0.375
vt 0.40625 0.609375
vt 0.453125 0.609375
vt 0.453125 0.53125
vt 0.40625 0.53125
vt 0.34375 0.453125
vt 0.3515625 0.453125
vt 0.3515625 0.375
vt 0.34375 0.375
vt 0.609375 0.7421875
vt 0.5625 0.7421875
vt 0.5625 0.75
vt 0.609375 0.75
vt 0.3125 0.4375
vt 0.265625 0.4375
vt 0.265625 0.4296875
vt 0.3125 0.4296875
vn 0 0 -1
vn 1 0 0
vn 0 0 1
vn -1 0 0
vn 0 1 0
vn 0 -1 0
usemtl m_9b34ceee-209d-bb5b-f8b8-8a3dd3a76a11
f 156/460/115 159/459/115 157/458/115 154/457/115
f 155/464/116 156/463/116 154/462/116 153/461/116
f 160/468/117 155/467/117 153/466/117 158/465/117
f 159/472/118 160/471/118 158/470/118 157/469/118
f 158/476/119 153/475/119 154/474/119 157/473/119
f 159/480/120 156/479/120 155/478/120 160/477/120
o cube
v 0.08750000000000002 0.5 0.08750000000000002
v 0.08750000000000002 0.5 -0.08750000000000002
v 0.08750000000000002 0.1875 0.08750000000000002
v 0.08750000000000002 0.1875 -0.08750000000000002
v -0.08750000000000002 0.5 -0.08750000000000002
v -0.08750000000000002 0.5 0.08750000000000002
v -0.08750000000000002 0.1875 -0.08750000000000002
v -0.08750000000000002 0.1875 0.08750000000000002
vt 0.421875 1
vt 0.46875 1
vt 0.46875 0.921875
vt 0.421875 0.921875
vt 0.421875 0.921875
vt 0.46875 0.921875
vt 0.46875 0.84375
vt 0.421875 0.84375
vt 0.421875 0.84375
vt 0.46875 0.84375
vt 0.46875 0.765625
vt 0.421875 0.765625
vt 0.421875 0.765625
vt 0.46875 0.765625
vt 0.46875 0.6875
vt 0.421875 0.6875
vt 0.515625 0.953125
vt 0.46875 0.953125
vt 0.46875 1
vt 0.515625 1
vt 0.09375 0.53125
vt 0.046875 0.53125
vt 0.046875 0.484375
vt 0.09375 0.484375
vn 0 0 -1
vn 1 0 0
vn 0 0 1
vn -1 0 0
vn 0 1 0
vn 0 -1 0
usemtl m_9b34ceee-209d-bb5b-f8b8-8a3dd3a76a11
f 164/484/121 167/483/121 165/482/121 162/481/121
f 163/488/122 164/487/122 162/486/122 161/485/122
f 168/492/123 163/491/123 161/490/123 166/489/123
f 167/496/124 168/495/124 166/494/124 165/493/124
f 166/500/125 161/499/125 162/498/125 165/497/125
f 167/504/126 164/503/126 163/502/126 168/501/126
o cube
v 0.09375 0.1875 0.09375
v 0.09375 0.1875 -0.09375
v 0.09375 0 0.09375
v 0.09375 0 -0.09375
v -0.09375 0.1875 -0.09375
v -0.09375 0.1875 0.09375
v -0.09375 0 -0.09375
v -0.09375 0 0.09375
vt 0.46875 0.953125
vt 0.515625 0.953125
vt 0.515625 0.90625
vt 0.46875 0.90625
vt 0.46875 0.90625
vt 0.515625 0.90625
vt 0.515625 0.859375
vt 0.46875 0.859375
vt 0.46875 0.859375
vt 0.515625 0.859375
vt 0.515625 0.8125
vt 0.46875 0.8125
vt 0.46875 0.8125
vt 0.515625 0.8125
vt 0.515625 0.765625
vt 0.46875 0.765625
vt 0.515625 0.71875
vt 0.46875 0.71875
vt 0.46875 0.765625
vt 0.515625 0.765625
vt 0.515625 0.71875
vt 0.46875 0.71875
vt 0.46875 0.671875
vt 0.515625 0.671875
vn 0 0 -1
vn 1 0 0
vn 0 0 1
vn -1 0 0
vn 0 1 0
vn 0 -1 0
usemtl m_9b34ceee-209d-bb5b-f8b8-8a3dd3a76a11
f 172/508/127 175/507/127 173/506/127 170/505/127
f 171/512/128 172/511/128 170/510/128 169/509/128
f 176/516/129 171/515/129 169/514/129 174/513/129
f 175/520/130 176/519/130 174/518/130 173/517/130
f 174/524/131 169/523/131 170/522/131 173/521/131
f 175/528/132 172/527/132 171/526/132 176/525/132
o cube
v 0.125 1.75 -0.3375
v 0.125 1.75 -0.36875
v 0.125 1.5 -0.3375
v 0.125 1.5 -0.36875
v -0.125 1.75 -0.36875
v -0.125 1.75 -0.3375
v -0.125 1.5 -0.36875
v -0.125 1.5 -0.3375
vt 0.25 0.6875
vt 0.3125 0.6875
vt 0.3125 0.625
vt 0.25 0.625
vt 0.46875 0.453125
vt 0.4765625 0.453125
vt 0.4765625 0.390625
vt 0.46875 0.390625
vt 0.3125 0.6875
vt 0.375 0.6875
vt 0.375 0.625
vt 0.3125 0.625
vt 0.484375 0.453125
vt 0.4921875 0.453125
vt 0.4921875 0.390625
vt 0.484375 0.390625
vt 0.609375 0.5546875
vt 0.546875 0.5546875
vt 0.546875 0.5625
vt 0.609375 0.5625
vt 0.609375 0.546875
vt 0.546875 0.546875
vt 0.546875 0.5390625
vt 0.609375 0.5390625
vn 0 0 -1
vn 1 0 0
vn 0 0 1
vn -1 0 0
vn 0 1 0
vn 0 -1 0
usemtl m_9b34ceee-209d-bb5b-f8b8-8a3dd3a76a11
f 180/532/133 183/531/133 181/530/133 178/529/133
f 179/536/134 180/535/134 178/534/134 177/533/134
f 184/540/135 179/539/135 177/538/135 182/537/135
f 183/544/136 184/543/136 182/542/136 181/541/136
f 182/548/137 177/547/137 178/546/137 181/545/137
f 183/552/138 180/551/138 179/550/138 184/549/138
o cube
v 0.125 1.75 0.35
v 0.125 1.75 0.3375
v 0.125 1.5 0.35
v 0.125 1.5 0.3375
v -0.125 1.75 0.3375
v -0.125 1.75 0.35
v -0.125 1.5 0.3375
v -0.125 1.5 0.35
vt 0 0.671875
vt 0.0625 0.671875
vt 0.0625 0.609375
vt 0 0.609375
vt 0.5 0.453125
vt 0.5078125 0.453125
vt 0.5078125 0.390625
vt 0.5 0.390625
vt 0.0625 0.671875
vt 0.125 0.671875
vt 0.125 0.609375
vt 0.0625 0.609375
vt 0.515625 0.453125
vt 0.5234375 0.453125
vt 0.5234375 0.390625
vt 0.515625 0.390625
vt 0.609375 0.5234375
vt 0.546875 0.5234375
vt 0.546875 0.53125
vt 0.609375 0.53125
vt 0.59375 0.453125
vt 0.53125 0.453125
vt 0.53125 0.4453125
vt 0.59375 0.4453125
vn 0 0 -1
vn 1 0 0
vn 0 0 1
vn -1 0 0
vn 0 1 0
vn 0 -1 0
usemtl m_9b34ceee-209d-bb5b-f8b8-8a3dd3a76a11
f 188/556/139 191/555/139 189/554/139 186/553/139
f 187/560/140 188/559/140 186/558/140 185/557/140
f 192/564/141 187/563/141 185/562/141 190/561/141
f 191/568/142 192/567/142 190/566/142 189/565/142
f 190/572/143 185/571/143 186/570/143 189/569/143
f 191/576/144 188/575/144 187/574/144 192/573/144
o cube
v 0.06562500000000004 1.80625 0.39375000000000004
v 0.06562500000000004 1.80625 0.30625000000000013
v 0.06562500000000004 1.68125 0.39375000000000004
v 0.06562500000000004 1.68125 0.30625000000000013
v -0.06562500000000004 1.80625 0.30625000000000013
v -0.06562500000000004 1.80625 0.39375000000000004
v -0.06562500000000004 1.68125 0.30625000000000013
v -0.06562500000000004 1.68125 0.39375000000000004
vt 0 0.671875
vt 0.0625 0.671875
vt 0.0625 0.609375
vt 0 0.609375
vt 0.5 0.453125
vt 0.5078125 0.453125
vt 0.5078125 0.390625
vt 0.5 0.390625
vt 0.0625 0.671875
vt 0.125 0.671875
vt 0.125 0.609375
vt 0.0625 0.609375
vt 0.515625 0.453125
vt 0.5234375 0.453125
vt 0.5234375 0.390625
vt 0.515625 0.390625
vt 0.609375 0.5234375
vt 0.546875 0.5234375
vt 0.546875 0.53125
vt 0.609375 0.53125
vt 0.59375 0.453125
vt 0.53125 0.453125
vt 0.53125 0.4453125
vt 0.59375 0.4453125
vn 0 0 -1
vn 1 0 0
vn 0 0 1
vn -1 0 0
vn 0 1 0
vn 0 -1 0
usemtl m_9b34ceee-209d-bb5b-f8b8-8a3dd3a76a11
f 196/580/145 199/579/145 197/578/145 194/577/145
f 195/584/146 196/583/146 194/582/146 193/581/146
f 200/588/147 195/587/147 193/586/147 198/585/147
f 199/592/148 200/591/148 198/590/148 197/589/148
f 198/596/149 193/595/149 194/594/149 197/593/149
f 199/600/150 196/599/150 195/598/150 200/597/150
o cube
v 0.13437500000000002 1.7875 0.36406249999999996
v 0.13437500000000002 1.7875 0.31093749999999987
v 0.13437500000000002 1.68125 0.36406249999999996
v 0.13437500000000002 1.68125 0.31093749999999987
v -0.13437500000000002 1.7875 0.31093749999999987
v -0.13437500000000002 1.7875 0.36406249999999996
v -0.13437500000000002 1.68125 0.31093749999999987
v -0.13437500000000002 1.68125 0.36406249999999996
vt 0 0.671875
vt 0.0625 0.671875
vt 0.0625 0.609375
vt 0 0.609375
vt 0.5 0.453125
vt 0.5078125 0.453125
vt 0.5078125 0.390625
vt 0.5 0.390625
vt 0.0625 0.671875
vt 0.125 0.671875
vt 0.125 0.609375
vt 0.0625 0.609375
vt 0.515625 0.453125
vt 0.5234375 0.453125
vt 0.5234375 0.390625
vt 0.515625 0.390625
vt 0.609375 0.5234375
vt 0.546875 0.5234375
vt 0.546875 0.53125
vt 0.609375 0.53125
vt 0.59375 0.453125
vt 0.53125 0.453125
vt 0.53125 0.4453125
vt 0.59375 0.4453125
vn 0 0 -1
vn 1 0 0
vn 0 0 1
vn -1 0 0
vn 0 1 0
vn 0 -1 0
usemtl m_9b34ceee-209d-bb5b-f8b8-8a3dd3a76a11
f 204/604/151 207/603/151 205/602/151 202/601/151
f 203/608/152 204/607/152 202/606/152 201/605/152
f 208/612/153 203/611/153 201/610/153 206/609/153
f 207/616/154 208/615/154 206/614/154 205/613/154
f 206/620/155 201/619/155 202/618/155 205/617/155
f 207/624/156 204/623/156 203/622/156 208/621/156
o cube
v 0.125 1.75625 0.35
v 0.125 1.75625 -0.35
v 0.125 1.75 0.35
v 0.125 1.75 -0.35
v -0.125 1.75625 -0.35
v -0.125 1.75625 0.35
v -0.125 1.75 -0.35
v -0.125 1.75 0.35
vt 0.5625 1
vt 0.625 1
vt 0.625 0.9921875
vt 0.5625 0.9921875
vt 0.5 0.515625
vt 0.671875 0.515625
vt 0.671875 0.5078125
vt 0.5 0.5078125
vt 0.5625 0.984375
vt 0.625 0.984375
vt 0.625 0.9765625
vt 0.5625 0.9765625
vt 0.515625 0.875
vt 0.6875 0.875
vt 0.6875 0.8671875
vt 0.515625 0.8671875
vt 0.18671875 0.671875
vt 0.12421875 0.671875
vt 0.12421875 0.84375
vt 0.18671875 0.84375
vt 0.2484375 1
vt 0.1859375 1
vt 0.1859375 0.828125
vt 0.2484375 0.828125
vn 0 0 -1
vn 1 0 0
vn 0 0 1
vn -1 0 0
vn 0 1 0
vn 0 -1 0
usemtl m_9b34ceee-209d-bb5b-f8b8-8a3dd3a76a11
f 212/628/157 215/627/157 213/626/157 210/625/157
f 211/632/158 212/631/158 210/630/158 209/629/158
f 216/636/159 211/635/159 209/634/159 214/633/159
f 215/640/160 216/639/160 214/638/160 213/637/160
f 214/644/161 209/643/161 210/642/161 213/641/161
f 215/648/162 212/647/162 211/646/162 216/645/162
o cube
v 0.08750000000000002 1.125 0.08750000000000002
v 0.08750000000000002 1.125 -0.08750000000000002
v 0.08750000000000002 0.78125 0.08750000000000002
v 0.08750000000000002 0.78125 -0.08750000000000002
v -0.08750000000000002 1.125 -0.08750000000000002
v -0.08750000000000002 1.125 0.08750000000000002
v -0.08750000000000002 0.78125 -0.08750000000000002
v -0.08750000000000002 0.78125 0.08750000000000002
vt 0.75 0.6875
vt 0.84375 0.6875
vt 0.84375 0.53125
vt 0.75 0.53125
vt 0.78125 0.25
vt 0.875 0.25
vt 0.875 0.09375
vt 0.78125 0.09375
vt 0.75 0.53125
vt 0.84375 0.53125
vt 0.84375 0.375
vt 0.75 0.375
vt 0.875 0.25
vt 0.96875 0.25
vt 0.96875 0.09375
vt 0.875 0.09375
vt 0.90625 0
vt 0.8125 0
vt 0.8125 0.09375
vt 0.90625 0.09375
vt 1 0.09375
vt 0.90625 0.09375
vt 0.90625 0
vt 1 0
vn 0 0 -1
vn 1 0 0
vn 0 0 1
vn -1 0 0
vn 0 1 0
vn 0 -1 0
usemtl m_2fd9b3c3-a0b7-1e2f-f7f2-033f1026505b
f 220/652/163 223/651/163 221/650/163 218/649/163
f 219/656/164 220/655/164 218/654/164 217/653/164
f 224/660/165 219/659/165 217/658/165 222/657/165
f 223/664/166 224/663/166 222/662/166 221/661/166
f 222/668/167 217/667/167 218/666/167 221/665/167
f 223/672/168 220/671/168 219/670/168 224/669/168
o cube
v 0.15625 1.75 0.3375
v 0.15625 1.75 0.09999999999999998
v 0.15625 1.46875 0.3375
v 0.15625 1.46875 0.09999999999999998
v 0.11874999999999991 1.75 0.09999999999999998
v 0.11874999999999991 1.75 0.3375
v 0.11874999999999991 1.46875 0.09999999999999998
v 0.11874999999999991 1.46875 0.3375
vt 0.359375 0.453125
vt 0.3671875 0.453125
vt 0.3671875 0.3828125
vt 0.359375 0.3828125
vt 0.25 0.921875
vt 0.3125 0.921875
vt 0.3125 0.8515625
vt 0.25 0.8515625
vt 0.546875 0.640625
vt 0.5546875 0.640625
vt 0.5546875 0.5703125
vt 0.546875 0.5703125
vt 0.25 0.84375
vt 0.3125 0.84375
vt 0.3125 0.7734375
vt 0.25 0.7734375
vt 0.0078125 0.375
vt 0 0.375
vt 0 0.4375
vt 0.0078125 0.4375
vt 0.0234375 0.4375
vt 0.015625 0.4375
vt 0.015625 0.375
vt 0.0234375 0.375
vn 0 0 -1
vn 1 0 0
vn 0 0 1
vn -1 0 0
vn 0 1 0
vn 0 -1 0
usemtl m_9b34ceee-209d-bb5b-f8b8-8a3dd3a76a11
f 228/676/169 231/675/169 229/674/169 226/673/169
f 227/680/170 228/679/170 226/678/170 225/677/170
f 232/684/171 227/683/171 225/682/171 230/681/171
f 231/688/172 232/687/172 230/686/172 229/685/172
f 230/692/173 225/691/173 226/690/173 229/689/173
f 231/696/174 228/695/174 227/694/174 232/693/174
o cube
v 0.15625 1.75 -0.09999999999999998
v 0.15625 1.75 -0.3375
v 0.15625 1.46875 -0.09999999999999998
v 0.15625 1.46875 -0.3375
v 0.11874999999999991 1.75 -0.3375
v 0.11874999999999991 1.75 -0.09999999999999998
v 0.11874999999999991 1.46875 -0.3375
v 0.11874999999999991 1.46875 -0.09999999999999998
vt 0 0.6875
vt 0.0390625 0.6875
vt 0.0390625 0.40625
vt 0 0.40625
vt 0 1
vt 0.234375 1
vt 0.234375 0.71875
vt 0 0.71875
vt 0.0625 0.6875
vt 0.1015625 0.6875
vt 0.1015625 0.40625
vt 0.0625 0.40625
vt 0.25 1
vt 0.484375 1
vt 0.484375 0.71875
vt 0.25 0.71875
vt 0.1640625 0.453125
vt 0.125 0.453125
vt 0.125 0.6875
vt 0.1640625 0.6875
vt 0.2265625 0.6875
vt 0.1875 0.6875
vt 0.1875 0.453125
vt 0.2265625 0.453125
vn 0 0 -1
vn 1 0 0
vn 0 0 1
vn -1 0 0
vn 0 1 0
vn 0 -1 0
usemtl m_2fd9b3c3-a0b7-1e2f-f7f2-033f1026505b
f 236/700/175 239/699/175 237/698/175 234/697/175
f 235/704/176 236/703/176 234/702/176 233/701/176
f 240/708/177 235/707/177 233/706/177 238/705/177
f 239/712/178 240/711/178 238/710/178 237/709/178
f 238/716/179 233/715/179 234/714/179 237/713/179
f 239/720/180 236/719/180 235/718/180 240/717/180
o cube
v 0.15625 1.5625 0.09999999999999998
v 0.15625 1.5625 -0.09999999999999998
v 0.15625 1.46875 0.09999999999999998
v 0.15625 1.46875 -0.09999999999999998
v 0.11874999999999991 1.5625 -0.09999999999999998
v 0.11874999999999991 1.5625 0.09999999999999998
v 0.11874999999999991 1.46875 -0.09999999999999998
v 0.11874999999999991 1.46875 0.09999999999999998
vt 0.59375 0.59375
vt 0.6015625 0.59375
vt 0.6015625 0.5703125
vt 0.59375 0.5703125
vt 0.515625 0.859375
vt 0.5625 0.859375
vt 0.5625 0.8359375
vt 0.515625 0.8359375
vt 0.59375 0.5
vt 0.6015625 0.5
vt 0.6015625 0.4765625
vt 0.59375 0.4765625
vt 0.515625 0.828125
vt 0.5625 0.828125
vt 0.5625 0.8046875
vt 0.515625 0.8046875
vt 0.5703125 0.6875
vt 0.5625 0.6875
vt 0.5625 0.734375
vt 0.5703125 0.734375
vt 0.5703125 0.6875
vt 0.5625 0.6875
vt 0.5625 0.640625
vt 0.5703125 0.640625
vn 0 0 -1
vn 1 0 0
vn 0 0 1
vn -1 0 0
vn 0 1 0
vn 0 -1 0
usemtl m_9b34ceee-209d-bb5b-f8b8-8a3dd3a76a11
f 244/724/181 247/723/181 245/722/181 242/721/181
f 243/728/182 244/727/182 242/726/182 241/725/182
f 248/732/183 243/731/183 241/730/183 246/729/183
f 247/736/184 248/735/184 246/734/184 245/733/184
f 246/740/185 241/739/185 242/738/185 245/737/185
f 247/744/186 244/743/186 243/742/186 248/741/186
o cube
v 0.15625 1.75 0.09999999999999998
v 0.15625 1.75 -0.09999999999999998
v 0.15625 1.65625 0.09999999999999998
v 0.15625 1.65625 -0.09999999999999998
v 0.11874999999999991 1.75 -0.09999999999999998
v 0.11874999999999991 1.75 0.09999999999999998
v 0.11874999999999991 1.65625 -0.09999999999999998
v 0.11874999999999991 1.65625 0.09999999999999998
vt 0.59375 0.46875
vt 0.6015625 0.46875
vt 0.6015625 0.4453125
vt 0.59375 0.4453125
vt 0.515625 0.796875
vt 0.5625 0.796875
vt 0.5625 0.7734375
vt 0.515625 0.7734375
vt 0.5625 0.40625
vt 0.5703125 0.40625
vt 0.5703125 0.3828125
vt 0.5625 0.3828125
vt 0.515625 0.765625
vt 0.5625 0.765625
vt 0.5625 0.7421875
vt 0.515625 0.7421875
vt 0.5703125 0.59375
vt 0.5625 0.59375
vt 0.5625 0.640625
vt 0.5703125 0.640625
vt 0.5703125 0.5
vt 0.5625 0.5
vt 0.5625 0.453125
vt 0.5703125 0.453125
vn 0 0 -1
vn 1 0 0
vn 0 0 1
vn -1 0 0
vn 0 1 0
vn 0 -1 0
usemtl m_9b34ceee-209d-bb5b-f8b8-8a3dd3a76a11
f 252/748/187 255/747/187 253/746/187 250/745/187
f 251/752/188 252/751/188 250/750/188 249/749/188
f 256/756/189 251/755/189 249/754/189 254/753/189
f 255/760/190 256/759/190 254/758/190 253/757/190
f 254/764/191 249/763/191 250/762/191 253/761/191
f 255/768/192 252/767/192 251/766/192 256/765/192
o cube
v 0.14375000000000004 1.65625 0.09999999999999998
v 0.14375000000000004 1.65625 -0.09999999999999998
v 0.14375000000000004 1.5625 0.09999999999999998
v 0.14375000000000004 1.5625 -0.09999999999999998
v 0.11875000000000013 1.65625 -0.09999999999999998
v 0.11875000000000013 1.65625 0.09999999999999998
v 0.11875000000000013 1.5625 -0.09999999999999998
v 0.11875000000000013 1.5625 0.09999999999999998
vt 0.59375 0.4375
vt 0.6015625 0.4375
vt 0.6015625 0.4140625
vt 0.59375 0.4140625
vt 0.515625 0.734375
vt 0.5625 0.734375
vt 0.5625 0.7109375
vt 0.515625 0.7109375
vt 0.578125 0.40625
vt 0.5859375 0.40625
vt 0.5859375 0.3828125
vt 0.578125 0.3828125
vt 0.515625 0.703125
vt 0.5625 0.703125
vt 0.5625 0.6796875
vt 0.515625 0.6796875
vt 0.5390625 0.390625
vt 0.53125 0.390625
vt 0.53125 0.4375
vt 0.5390625 0.4375
vt 0.5546875 0.4375
vt 0.546875 0.4375
vt 0.546875 0.390625
vt 0.5546875 0.390625
vn 0 0 -1
vn 1 0 0
vn 0 0 1
vn -1 0 0
vn 0 1 0
vn 0 -1 0
usemtl m_9b34ceee-209d-bb5b-f8b8-8a3dd3a76a11
f 260/772/193 263/771/193 261/770/193 258/769/193
f 259/776/194 260/775/194 258/774/194 257/773/194
f 264/780/195 259/779/195 257/778/195 262/777/195
f 263/784/196 264/783/196 262/782/196 261/781/196
f 262/788/197 257/787/197 258/786/197 261/785/197
f 263/792/198 260/791/198 259/790/198 264/789/198
o cube
v 0.15000000000000002 1.7291815472394507 -0.09090097423302684
v 0.15000000000000002 1.6496320343559643 -0.17045048711651348
v 0.15000000000000002 1.662890286503212 -0.024609713496788005
v 0.15000000000000002 1.5833407736197254 -0.10415922638027464
v 0.11875000000000002 1.6496320343559643 -0.17045048711651348
v 0.11875000000000002 1.7291815472394507 -0.09090097423302684
v 0.11875000000000002 1.5833407736197254 -0.10415922638027464
v 0.11875000000000002 1.662890286503212 -0.024609713496788005
vt 0.59375 0.40625
vt 0.6015625 0.40625
vt 0.6015625 0.3828125
vt 0.59375 0.3828125
vt 0.21875 0.671875
vt 0.25 0.671875
vt 0.25 0.6484375
vt 0.21875 0.6484375
vt 0.609375 0.96875
vt 0.6171875 0.96875
vt 0.6171875 0.9453125
vt 0.609375 0.9453125
vt 0.1875 0.59375
vt 0.21875 0.59375
vt 0.21875 0.5703125
vt 0.1875 0.5703125
vt 0.5859375 0.59375
vt 0.578125 0.59375
vt 0.578125 0.625
vt 0.5859375 0.625
vt 0.5859375 0.59375
vt 0.578125 0.59375
vt 0.578125 0.5625
vt 0.5859375 0.5625
vn 0 -0.7071067811865476 -0.7071067811865475
vn 1 0 0
vn 0 0.7071067811865476 0.7071067811865475
vn -1 0 0
vn 0 0.7071067811865475 -0.7071067811865476
vn 0 -0.7071067811865475 0.7071067811865476
usemtl m_9b34ceee-209d-bb5b-f8b8-8a3dd3a76a11
f 268/796/199 271/795/199 269/794/199 266/793/199
f 267/800/200 268/799/200 266/798/200 265/797/200
f 272/804/201 267/803/201 265/802/201 270/801/201
f 271/808/202 272/807/202 270/806/202 269/805/202
f 270/812/203 265/811/203 266/810/203 269/809/203
f 271/816/204 268/815/204 267/814/204 272/813/204
o cube
v 0.15000000000000002 1.6534009742330267 0.1729315472394508
v 0.15000000000000002 1.7329504871165133 0.09338203435596434
v 0.15000000000000002 1.587109713496788 0.10664028650321197
v 0.15000000000000002 1.6666592263802744 0.027090773619725506
v 0.11875000000000002 1.7329504871165133 0.09338203435596434
v 0.11875000000000002 1.6534009742330267 0.1729315472394508
v 0.11875000000000002 1.6666592263802744 0.027090773619725506
v 0.11875000000000002 1.587109713496788 0.10664028650321197
vt 0.609375 0.9375
vt 0.6171875 0.9375
vt 0.6171875 0.9140625
vt 0.609375 0.9140625
vt 0.421875 0.640625
vt 0.453125 0.640625
vt 0.453125 0.6171875
vt 0.421875 0.6171875
vt 0.609375 0.90625
vt 0.6171875 0.90625
vt 0.6171875 0.8828125
vt 0.609375 0.8828125
vt 0.421875 0.53125
vt 0.453125 0.53125
vt 0.453125 0.5078125
vt 0.421875 0.5078125
vt 0.5859375 0.46875
vt 0.578125 0.46875
vt 0.578125 0.5
vt 0.5859375 0.5
vt 0.5859375 0.4375
vt 0.578125 0.4375
vt 0.578125 0.40625
vt 0.5859375 0.40625
vn 0 0.7071067811865476 -0.7071067811865475
vn 1 0 0
vn 0 -0.7071067811865476 0.7071067811865475
vn -1 0 0
vn 0 0.7071067811865475 0.7071067811865476
vn 0 -0.7071067811865475 -0.7071067811865476
usemtl m_9b34ceee-209d-bb5b-f8b8-8a3dd3a76a11
f 276/820/205 279/819/205 277/818/205 274/817/205
f 275/824/206 276/823/206 274/822/206 273/821/206
f 280/828/207 275/827/207 273/826/207 278/825/207
f 279/832/208 280/831/208 278/830/208 277/829/208
f 278/836/209 273/835/209 274/834/209 277/833/209
f 279/840/210 276/839/210 275/838/210 280/837/210
o cube
v 0.15000000000000002 1.5563038873209472 -0.06880388732094722
v 0.15000000000000002 1.5916592263802747 -0.10415922638027464
v 0.15000000000000002 1.4900126265847085 -0.13509514805718606
v 0.15000000000000002 1.5253679656440358 -0.17045048711651348
v 0.11875000000000002 1.5916592263802747 -0.10415922638027464
v 0.11875000000000002 1.5563038873209472 -0.06880388732094722
v 0.11875000000000002 1.5253679656440358 -0.17045048711651348
v 0.11875000000000002 1.4900126265847085 -0.13509514805718606
vt 0.609375 0.859375
vt 0.6171875 0.859375
vt 0.6171875 0.8359375
vt 0.609375 0.8359375
vt 0.5625 0.59375
vt 0.578125 0.59375
vt 0.578125 0.5703125
vt 0.5625 0.5703125
vt 0.15625 0.390625
vt 0.1640625 0.390625
vt 0.1640625 0.3671875
vt 0.15625 0.3671875
vt 0.5625 0.4375
vt 0.578125 0.4375
vt 0.578125 0.4140625
vt 0.5625 0.4140625
vt 0.6171875 0.671875
vt 0.609375 0.671875
vt 0.609375 0.6875
vt 0.6171875 0.6875
vt 0.6171875 0.65625
vt 0.609375 0.65625
vt 0.609375 0.640625
vt 0.6171875 0.640625
vn 0 0.7071067811865476 -0.7071067811865475
vn 1 0 0
vn 0 -0.7071067811865476 0.7071067811865475
vn -1 0 0
vn 0 0.7071067811865475 0.7071067811865476
vn 0 -0.7071067811865475 -0.7071067811865476
usemtl m_9b34ceee-209d-bb5b-f8b8-8a3dd3a76a11
f 284/844/211 287/843/211 285/842/211 282/841/211
f 283/848/212 284/847/212 282/846/212 281/845/212
f 288/852/213 283/851/213 281/850/213 286/849/213
f 287/856/214 288/855/214 286/854/214 285/853/214
f 286/860/215 281/859/215 282/858/215 285/857/215
f 287/864/216 284/863/216 283/862/216 288/861/216
o cube
v 0.15000000000000002 1.587890286503212 0.10664028650321197
v 0.15000000000000002 1.5083407736197256 0.027090773619725506
v 0.15000000000000002 1.5657931995911325 0.1287373734152916
v 0.15000000000000002 1.486243686707646 0.04918786053180513
v 0.11875000000000002 1.5083407736197256 0.027090773619725506
v 0.11875000000000002 1.587890286503212 0.10664028650321197
v 0.11875000000000002 1.486243686707646 0.04918786053180513
v 0.11875000000000002 1.5657931995911325 0.1287373734152916
vt 0.609375 0.4375
vt 0.6171875 0.4375
vt 0.6171875 0.4296875
vt 0.609375 0.4296875
vt 0.21875 0.640625
vt 0.25 0.640625
vt 0.25 0.6328125
vt 0.21875 0.6328125
vt 0.609375 0.421875
vt 0.6171875 0.421875
vt 0.6171875 0.4140625
vt 0.609375 0.4140625
vt 0.09375 0.609375
vt 0.125 0.609375
vt 0.125 0.6015625
vt 0.09375 0.6015625
vt 0.6015625 0.9375
vt 0.59375 0.9375
vt 0.59375 0.96875
vt 0.6015625 0.96875
vt 0.6015625 0.9375
vt 0.59375 0.9375
vt 0.59375 0.90625
vt 0.6015625 0.90625
vn 0 -0.7071067811865476 -0.7071067811865475
vn 1 0 0
vn 0 0.7071067811865476 0.7071067811865475
vn -1 0 0
vn 0 0.7071067811865475 -0.7071067811865476
vn 0 -0.7071067811865475 0.7071067811865476
usemtl m_9b34ceee-209d-bb5b-f8b8-8a3dd3a76a11
f 292/868/217 295/867/217 293/866/217 290/865/217
f 291/872/218 292/871/218 290/870/218 289/869/218
f 296/876/219 291/875/219 289/874/219 294/873/219
f 295/880/220 296/879/220 294/878/220 293/877/220
f 294/884/221 289/883/221 290/882/221 293/881/221
f 295/888/222 292/887/222 291/886/222 296/885/222
o cube
v 0.14531249999999996 1.6375 0.03125
v 0.14531249999999996 1.6375 -0.03125
v 0.14531249999999996 1.58125 0.03125
v 0.14531249999999996 1.58125 -0.03125
v 0.1171875 1.6375 -0.03125
v 0.1171875 1.6375 0.03125
v 0.1171875 1.58125 -0.03125
v 0.1171875 1.58125 0.03125
vt 0.609375 0.640625
vt 0.6171875 0.640625
vt 0.6171875 0.625
vt 0.609375 0.625
vt 0.359375 0.625
vt 0.375 0.625
vt 0.375 0.609375
vt 0.359375 0.609375
vt 0.609375 0.625
vt 0.6171875 0.625
vt 0.6171875 0.609375
vt 0.609375 0.609375
vt 0.1875 0.5625
vt 0.203125 0.5625
vt 0.203125 0.546875
vt 0.1875 0.546875
vt 0.6171875 0.59375
vt 0.609375 0.59375
vt 0.609375 0.609375
vt 0.6171875 0.609375
vt 0.6171875 0.59375
vt 0.609375 0.59375
vt 0.609375 0.578125
vt 0.6171875 0.578125
vn 0 0 -1
vn 1 0 0
vn 0 0 1
vn -1 0 0
vn 0 1 0
vn 0 -1 0
usemtl m_9b34ceee-209d-bb5b-f8b8-8a3dd3a76a11
f 300/892/223 303/891/223 301/890/223 298/889/223
f 299/896/224 300/895/224 298/894/224 297/893/224
f 304/900/225 299/899/225 297/898/225 302/897/225
f 303/904/226 304/903/226 302/902/226 301/901/226
f 302/908/227 297/907/227 298/906/227 301/905/227
f 303/912/228 300/911/228 299/910/228 304/909/228
o cube
v 0.15000000000000002 1.6359375 0.029687499999999978
v 0.15000000000000002 1.6359375 -0.029687499999999978
v 0.15000000000000002 1.5828125 0.029687499999999978
v 0.15000000000000002 1.5828125 -0.029687499999999978
v 0.14218750000000002 1.6359375 -0.029687499999999978
v 0.14218750000000002 1.6359375 0.029687499999999978
v 0.14218750000000002 1.5828125 -0.029687499999999978
v 0.14218750000000002 1.5828125 0.029687499999999978
vt 0.609375 0.578125
vt 0.6171875 0.578125
vt 0.6171875 0.5625
vt 0.609375 0.5625
vt 0.96875 1
vt 1 1
vt 1 0.96875
vt 0.96875 0.96875
vt 0.609375 0.5625
vt 0.6171875 0.5625
vt 0.6171875 0.546875
vt 0.609375 0.546875
vt 0.328125 0.546875
vt 0.34375 0.546875
vt 0.34375 0.53125
vt 0.328125 0.53125
vt 0.6171875 0.53125
vt 0.609375 0.53125
vt 0.609375 0.546875
vt 0.6171875 0.546875
vt 0.4765625 0.390625
vt 0.46875 0.390625
vt 0.46875 0.375
vt 0.4765625 0.375
vn 0 0 -1
vn 1 0 0
vn 0 0 1
vn -1 0 0
vn 0 1 0
vn 0 -1 0
usemtl m_9b34ceee-209d-bb5b-f8b8-8a3dd3a76a11
f 308/916/229 311/915/229 309/914/229 306/913/229
f 307/920/230 308/919/230 306/918/230 305/917/230
f 312/924/231 307/923/231 305/922/231 310/921/231
f 311/928/232 312/927/232 310/926/232 309/925/232
f 310/932/233 305/931/233 306/930/233 309/929/233
f 311/936/234 308/935/234 307/934/234 312/933/234
o cube
v -0.11875000000000002 1.75 0.09999999999999998
v -0.11875000000000002 1.75 -0.09999999999999998
v -0.11875000000000002 1.65625 0.09999999999999998
v -0.11875000000000002 1.65625 -0.09999999999999998
v -0.15625 1.75 -0.09999999999999998
v -0.15625 1.75 0.09999999999999998
v -0.15625 1.65625 -0.09999999999999998
v -0.15625 1.65625 0.09999999999999998
vt 0.171875 0.390625
vt 0.1796875 0.390625
vt 0.1796875 0.3671875
vt 0.171875 0.3671875
vt 0.328125 0.484375
vt 0.375 0.484375
vt 0.375 0.4609375
vt 0.328125 0.4609375
vt 0.609375 0.828125
vt 0.6171875 0.828125
vt 0.6171875 0.8046875
vt 0.609375 0.8046875
vt 0.515625 0.671875
vt 0.5625 0.671875
vt 0.5625 0.6484375
vt 0.515625 0.6484375
vt 0.5859375 0.921875
vt 0.578125 0.921875
vt 0.578125 0.96875
vt 0.5859375 0.96875
vt 0.5859375 0.859375
vt 0.578125 0.859375
vt 0.578125 0.8125
vt 0.5859375 0.8125
vn 0 0 -1
vn 1 0 0
vn 0 0 1
vn -1 0 0
vn 0 1 0
vn 0 -1 0
usemtl m_9b34ceee-209d-bb5b-f8b8-8a3dd3a76a11
f 316/940/235 319/939/235 317/938/235 314/937/235
f 315/944/236 316/943/236 314/942/236 313/941/236
f 320/948/237 315/947/237 313/946/237 318/945/237
f 319/952/238 320/951/238 318/950/238 317/949/238
f 318/956/239 313/955/239 314/954/239 317/953/239
f 319/960/240 316/959/240 315/958/240 320/957/240
o cube
v -0.11875000000000002 1.75 -0.09999999999999998
v -0.11875000000000002 1.75 -0.3375
v -0.11875000000000002 1.46875 -0.09999999999999998
v -0.11875000000000002 1.46875 -0.3375
v -0.15625 1.75 -0.3375
v -0.15625 1.75 -0.09999999999999998
v -0.15625 1.46875 -0.3375
v -0.15625 1.46875 -0.09999999999999998
vt 0.4296875 0.453125
vt 0.421875 0.453125
vt 0.421875 0.3828125
vt 0.4296875 0.3828125
vt 0.484375 1
vt 0.25 1
vt 0.25 0.7265625
vt 0.484375 0.7265625
vt 0.4140625 0.453125
vt 0.40625 0.453125
vt 0.40625 0.3828125
vt 0.4140625 0.3828125
vt 0.234375 1
vt 0 1
vt 0 0.71875
vt 0.234375 0.71875
vt 0.2890625 0.6953125
vt 0.25 0.6953125
vt 0.25 0.4609375
vt 0.2890625 0.4609375
vt 0.15625 0.8984375
vt 0.1484375 0.8984375
vt 0.1484375 0.9609375
vt 0.15625 0.9609375
vn 0 0 -1
vn 1 0 0
vn 0 0 1
vn -1 0 0
vn 0 1 0
vn 0 -1 0
usemtl m_2fd9b3c3-a0b7-1e2f-f7f2-033f1026505b
f 324/964/241 327/963/241 325/962/241 322/961/241
f 323/968/242 324/967/242 322/966/242 321/965/242
f 328/972/243 323/971/243 321/970/243 326/969/243
f 327/976/244 328/975/244 326/974/244 325/973/244
f 326/980/245 321/979/245 322/978/245 325/977/245
f 327/984/246 324/983/246 323/982/246 328/981/246
o cube
v -0.11875000000000002 1.5563038873209472 -0.06880388732094722
v -0.11875000000000002 1.5916592263802747 -0.10415922638027464
v -0.11875000000000002 1.4900126265847085 -0.13509514805718606
v -0.11875000000000002 1.5253679656440358 -0.17045048711651348
v -0.15000000000000002 1.5916592263802747 -0.10415922638027464
v -0.15000000000000002 1.5563038873209472 -0.06880388732094722
v -0.15000000000000002 1.5253679656440358 -0.17045048711651348
v -0.15000000000000002 1.4900126265847085 -0.13509514805718606
vt 0.1875 0.390625
vt 0.1953125 0.390625
vt 0.1953125 0.3671875
vt 0.1875 0.3671875
vt 0.171875 0.421875
vt 0.1875 0.421875
vt 0.1875 0.3984375
vt 0.171875 0.3984375
vt 0.609375 0.796875
vt 0.6171875 0.796875
vt 0.6171875 0.7734375
vt 0.609375 0.7734375
vt 0.1875 0.421875
vt 0.203125 0.421875
vt 0.203125 0.3984375
vt 0.1875 0.3984375
vt 0.6171875 0.515625
vt 0.609375 0.515625
vt 0.609375 0.53125
vt 0.6171875 0.53125
vt 0.4921875 0.390625
vt 0.484375 0.390625
vt 0.484375 0.375
vt 0.4921875 0.375
vn 0 0.7071067811865476 -0.7071067811865475
vn 1 0 0
vn 0 -0.7071067811865476 0.7071067811865475
vn -1 0 0
vn 0 0.7071067811865475 0.7071067811865476
vn 0 -0.7071067811865475 -0.7071067811865476
usemtl m_9b34ceee-209d-bb5b-f8b8-8a3dd3a76a11
f 332/988/247 335/987/247 333/986/247 330/985/247
f 331/992/248 332/991/248 330/990/248 329/989/248
f 336/996/249 331/995/249 329/994/249 334/993/249
f 335/1000/250 336/999/250 334/998/250 333/997/250
f 334/1004/251 329/1003/251 330/1002/251 333/1001/251
f 335/1008/252 332/1007/252 331/1006/252 336/1005/252
o cube
v -0.11875000000000002 1.7291815472394507 -0.09090097423302684
v -0.11875000000000002 1.6496320343559643 -0.17045048711651348
v -0.11875000000000002 1.662890286503212 -0.024609713496788005
v -0.11875000000000002 1.5833407736197254 -0.10415922638027464
v -0.15000000000000002 1.6496320343559643 -0.17045048711651348
v -0.15000000000000002 1.7291815472394507 -0.09090097423302684
v -0.15000000000000002 1.5833407736197254 -0.10415922638027464
v -0.15000000000000002 1.662890286503212 -0.024609713496788005
vt 0.21875 0.390625
vt 0.2265625 0.390625
vt 0.2265625 0.3671875
vt 0.21875 0.3671875
vt 0.1875 0.46875
vt 0.21875 0.46875
vt 0.21875 0.4453125
vt 0.1875 0.4453125
vt 0.234375 0.390625
vt 0.2421875 0.390625
vt 0.2421875 0.3671875
vt 0.234375 0.3671875
vt 0.21875 0.46875
vt 0.25 0.46875
vt 0.25 0.4453125
vt 0.21875 0.4453125
vt 0.6015625 0.828125
vt 0.59375 0.828125
vt 0.59375 0.859375
vt 0.6015625 0.859375
vt 0.6015625 0.796875
vt 0.59375 0.796875
vt 0.59375 0.765625
vt 0.6015625 0.765625
vn 0 -0.7071067811865476 -0.7071067811865475
vn 1 0 0
vn 0 0.7071067811865476 0.7071067811865475
vn -1 0 0
vn 0 0.7071067811865475 -0.7071067811865476
vn 0 -0.7071067811865475 0.7071067811865476
usemtl m_9b34ceee-209d-bb5b-f8b8-8a3dd3a76a11
f 340/1012/253 343/1011/253 341/1010/253 338/1009/253
f 339/1016/254 340/1015/254 338/1014/254 337/1013/254
f 344/1020/255 339/1019/255 337/1018/255 342/1017/255
f 343/1024/256 344/1023/256 342/1022/256 341/1021/256
f 342/1028/257 337/1027/257 338/1026/257 341/1025/257
f 343/1032/258 340/1031/258 339/1030/258 344/1029/258
o cube
v -0.11875000000000002 1.65625 0.09999999999999998
v -0.11875000000000002 1.65625 -0.09999999999999998
v -0.11875000000000002 1.5625 0.09999999999999998
v -0.11875000000000002 1.5625 -0.09999999999999998
v -0.14374999999999993 1.65625 -0.09999999999999998
v -0.14374999999999993 1.65625 0.09999999999999998
v -0.14374999999999993 1.5625 -0.09999999999999998
v -0.14374999999999993 1.5625 0.09999999999999998
vt 0.25 0.390625
vt 0.2578125 0.390625
vt 0.2578125 0.3671875
vt 0.25 0.3671875
vt 0.375 0.484375
vt 0.421875 0.484375
vt 0.421875 0.4609375
vt 0.375 0.4609375
vt 0.609375 0.75
vt 0.6171875 0.75
vt 0.6171875 0.7265625
vt 0.609375 0.7265625
vt 0.515625 0.5
vt 0.5625 0.5
vt 0.5625 0.4765625
vt 0.515625 0.4765625
vt 0.2109375 0.375
vt 0.203125 0.375
vt 0.203125 0.421875
vt 0.2109375 0.421875
vt 0.5859375 0.796875
vt 0.578125 0.796875
vt 0.578125 0.75
vt 0.5859375 0.75
vn 0 0 -1
vn 1 0 0
vn 0 0 1
vn -1 0 0
vn 0 1 0
vn 0 -1 0
usemtl m_9b34ceee-209d-bb5b-f8b8-8a3dd3a76a11
f 348/1036/259 351/1035/259 349/1034/259 346/1033/259
f 347/1040/260 348/1039/260 346/1038/260 345/1037/260
f 352/1044/261 347/1043/261 345/1042/261 350/1041/261
f 351/1048/262 352/1047/262 350/1046/262 349/1045/262
f 350/1052/263 345/1051/263 346/1050/263 349/1049/263
f 351/1056/264 348/1055/264 347/1054/264 352/1053/264
o cube
v -0.1171875 1.6375 0.03125
v -0.1171875 1.6375 -0.03125
v -0.1171875 1.58125 0.03125
v -0.1171875 1.58125 -0.03125
v -0.14531249999999996 1.6375 -0.03125
v -0.14531249999999996 1.6375 0.03125
v -0.14531249999999996 1.58125 -0.03125
v -0.14531249999999996 1.58125 0.03125
vt 0.5 0.390625
vt 0.5078125 0.390625
vt 0.5078125 0.375
vt 0.5 0.375
vt 0.34375 0.546875
vt 0.359375 0.546875
vt 0.359375 0.53125
vt 0.34375 0.53125
vt 0.609375 0.5
vt 0.6171875 0.5
vt 0.6171875 0.484375
vt 0.609375 0.484375
vt 0.578125 0.921875
vt 0.59375 0.921875
vt 0.59375 0.90625
vt 0.578125 0.90625
vt 0.5234375 0.375
vt 0.515625 0.375
vt 0.515625 0.390625
vt 0.5234375 0.390625
vt 0.6171875 0.484375
vt 0.609375 0.484375
vt 0.609375 0.46875
vt 0.6171875 0.46875
vn 0 0 -1
vn 1 0 0
vn 0 0 1
vn -1 0 0
vn 0 1 0
vn 0 -1 0
usemtl m_9b34ceee-209d-bb5b-f8b8-8a3dd3a76a11
f 356/1060/265 359/1059/265 357/1058/265 354/1057/265
f 355/1064/266 356/1063/266 354/1062/266 353/1061/266
f 360/1068/267 355/1067/267 353/1066/267 358/1065/267
f 359/1072/268 360/1071/268 358/1070/268 357/1069/268
f 358/1076/269 353/1075/269 354/1074/269 357/1073/269
f 359/1080/270 356/1079/270 355/1078/270 360/1077/270
o cube
v -0.14218750000000002 1.6359375 0.029687499999999978
v -0.14218750000000002 1.6359375 -0.029687499999999978
v -0.14218750000000002 1.5828125 0.029687499999999978
v -0.14218750000000002 1.5828125 -0.029687499999999978
v -0.15000000000000002 1.6359375 -0.029687499999999978
v -0.15000000000000002 1.6359375 0.029687499999999978
v -0.15000000000000002 1.5828125 -0.029687499999999978
v -0.15000000000000002 1.5828125 0.029687499999999978
vt 0.53125 0.390625
vt 0.5390625 0.390625
vt 0.5390625 0.375
vt 0.53125 0.375
vt 0.578125 0.46875
vt 0.59375 0.46875
vt 0.59375 0.453125
vt 0.578125 0.453125
vt 0.609375 0.46875
vt 0.6171875 0.46875
vt 0.6171875 0.453125
vt 0.609375 0.453125
vt 0.96875 1
vt 1 1
vt 1 0.96875
vt 0.96875 0.96875
vt 0.5546875 0.375
vt 0.546875 0.375
vt 0.546875 0.390625
vt 0.5546875 0.390625
vt 0.6171875 0.453125
vt 0.609375 0.453125
vt 0.609375 0.4375
vt 0.6171875 0.4375
vn 0 0 -1
vn 1 0 0
vn 0 0 1
vn -1 0 0
vn 0 1 0
vn 0 -1 0
usemtl m_9b34ceee-209d-bb5b-f8b8-8a3dd3a76a11
f 364/1084/271 367/1083/271 365/1082/271 362/1081/271
f 363/1088/272 364/1087/272 362/1086/272 361/1085/272
f 368/1092/273 363/1091/273 361/1090/273 366/1089/273
f 367/1096/274 368/1095/274 366/1094/274 365/1093/274
f 366/1100/275 361/1099/275 362/1098/275 365/1097/275
f 367/1104/276 364/1103/276 363/1102/276 368/1101/276
o cube
v -0.11875000000000002 1.6534009742330267 0.1729315472394508
v -0.11875000000000002 1.7329504871165133 0.09338203435596434
v -0.11875000000000002 1.587109713496788 0.10664028650321197
v -0.11875000000000002 1.6666592263802744 0.027090773619725506
v -0.15000000000000002 1.7329504871165133 0.09338203435596434
v -0.15000000000000002 1.6534009742330267 0.1729315472394508
v -0.15000000000000002 1.6666592263802744 0.027090773619725506
v -0.15000000000000002 1.587109713496788 0.10664028650321197
vt 0.28125 0.390625
vt 0.2890625 0.390625
vt 0.2890625 0.3671875
vt 0.28125 0.3671875
vt 0.25 0.46875
vt 0.28125 0.46875
vt 0.28125 0.4453125
vt 0.25 0.4453125
vt 0.609375 0.71875
vt 0.6171875 0.71875
vt 0.6171875 0.6953125
vt 0.609375 0.6953125
vt 0.28125 0.46875
vt 0.3125 0.46875
vt 0.3125 0.4453125
vt 0.28125 0.4453125
vt 0.6015625 0.703125
vt 0.59375 0.703125
vt 0.59375 0.734375
vt 0.6015625 0.734375
vt 0.6015625 0.703125
vt 0.59375 0.703125
vt 0.59375 0.671875
vt 0.6015625 0.671875
vn 0 0.7071067811865476 -0.7071067811865475
vn 1 0 0
vn 0 -0.7071067811865476 0.7071067811865475
vn -1 0 0
vn 0 0.7071067811865475 0.7071067811865476
vn 0 -0.7071067811865475 -0.7071067811865476
usemtl m_9b34ceee-209d-bb5b-f8b8-8a3dd3a76a11
f 372/1108/277 375/1107/277 373/1106/277 370/1105/277
f 371/1112/278 372/1111/278 370/1110/278 369/1109/278
f 376/1116/279 371/1115/279 369/1114/279 374/1113/279
f 375/1120/280 376/1119/280 374/1118/280 373/1117/280
f 374/1124/281 369/1123/281 370/1122/281 373/1121/281
f 375/1128/282 372/1127/282 371/1126/282 376/1125/282
o cube
v -0.11875000000000002 1.587890286503212 0.10664028650321197
v -0.11875000000000002 1.5083407736197256 0.027090773619725506
v -0.11875000000000002 1.5657931995911325 0.1287373734152916
v -0.11875000000000002 1.486243686707646 0.04918786053180513
v -0.15000000000000002 1.5083407736197256 0.027090773619725506
v -0.15000000000000002 1.587890286503212 0.10664028650321197
v -0.15000000000000002 1.486243686707646 0.04918786053180513
v -0.15000000000000002 1.5657931995911325 0.1287373734152916
vt 0.609375 0.40625
vt 0.6171875 0.40625
vt 0.6171875 0.3984375
vt 0.609375 0.3984375
vt 0.59375 0.765625
vt 0.625 0.765625
vt 0.625 0.7578125
vt 0.59375 0.7578125
vt 0.609375 0.390625
vt 0.6171875 0.390625
vt 0.6171875 0.3828125
vt 0.609375 0.3828125
vt 0.59375 0.671875
vt 0.625 0.671875
vt 0.625 0.6640625
vt 0.59375 0.6640625
vt 0.6015625 0.625
vt 0.59375 0.625
vt 0.59375 0.65625
vt 0.6015625 0.65625
vt 0.6015625 0.625
vt 0.59375 0.625
vt 0.59375 0.59375
vt 0.6015625 0.59375
vn 0 -0.7071067811865476 -0.7071067811865475
vn 1 0 0
vn 0 0.7071067811865476 0.7071067811865475
vn -1 0 0
vn 0 0.7071067811865475 -0.7071067811865476
vn 0 -0.7071067811865475 0.7071067811865476
usemtl m_9b34ceee-209d-bb5b-f8b8-8a3dd3a76a11
f 380/1132/283 383/1131/283 381/1130/283 378/1129/283
f 379/1136/284 380/1135/284 378/1134/284 377/1133/284
f 384/1140/285 379/1139/285 377/1138/285 382/1137/285
f 383/1144/286 384/1143/286 382/1142/286 381/1141/286
f 382/1148/287 377/1147/287 378/1146/287 381/1145/287
f 383/1152/288 380/1151/288 379/1150/288 384/1149/288
o cube
v -0.11875000000000002 1.75 0.3375
v -0.11875000000000002 1.75 0.09999999999999998
v -0.11875000000000002 1.46875 0.3375
v -0.11875000000000002 1.46875 0.09999999999999998
v -0.15625 1.75 0.09999999999999998
v -0.15625 1.75 0.3375
v -0.15625 1.46875 0.09999999999999998
v -0.15625 1.46875 0.3375
vt 0.4375 0.453125
vt 0.4453125 0.453125
vt 0.4453125 0.3828125
vt 0.4375 0.3828125
vt 0.3125 0.84375
vt 0.375 0.84375
vt 0.375 0.7734375
vt 0.3125 0.7734375
vt 0.453125 0.453125
vt 0.4609375 0.453125
vt 0.4609375 0.3828125
vt 0.453125 0.3828125
vt 0.3125 0.765625
vt 0.375 0.765625
vt 0.375 0.6953125
vt 0.3125 0.6953125
vt 0.1328125 0.375
vt 0.125 0.375
vt 0.125 0.4375
vt 0.1328125 0.4375
vt 0.1484375 0.4375
vt 0.140625 0.4375
vt 0.140625 0.375
vt 0.1484375 0.375
vn 0 0 -1
vn 1 0 0
vn 0 0 1
vn -1 0 0
vn 0 1 0
vn 0 -1 0
usemtl m_9b34ceee-209d-bb5b-f8b8-8a3dd3a76a11
f 388/1156/289 391/1155/289 389/1154/289 386/1153/289
f 387/1160/290 388/1159/290 386/1158/290 385/1157/290
f 392/1164/291 387/1163/291 385/1162/291 390/1161/291
f 391/1168/292 392/1167/292 390/1166/292 389/1165/292
f 390/1172/293 385/1171/293 386/1170/293 389/1169/293
f 391/1176/294 388/1175/294 387/1174/294 392/1173/294
o cube
v -0.11875000000000002 1.5625 0.09999999999999998
v -0.11875000000000002 1.5625 -0.09999999999999998
v -0.11875000000000002 1.46875 0.09999999999999998
v -0.11875000000000002 1.46875 -0.09999999999999998
v -0.15625 1.5625 -0.09999999999999998
v -0.15625 1.5625 0.09999999999999998
v -0.15625 1.46875 -0.09999999999999998
v -0.15625 1.46875 0.09999999999999998
vt 0.296875 0.390625
vt 0.3046875 0.390625
vt 0.3046875 0.3671875
vt 0.296875 0.3671875
vt 0.09375 0.46875
vt 0.140625 0.46875
vt 0.140625 0.4453125
vt 0.09375 0.4453125
vt 0.3125 0.390625
vt 0.3203125 0.390625
vt 0.3203125 0.3671875
vt 0.3125 0.3671875
vt 0.140625 0.46875
vt 0.1875 0.46875
vt 0.1875 0.4453125
vt 0.140625 0.4453125
vt 0.2734375 0.375
vt 0.265625 0.375
vt 0.265625 0.421875
vt 0.2734375 0.421875
vt 0.5859375 0.734375
vt 0.578125 0.734375
vt 0.578125 0.6875
vt 0.5859375 0.6875
vn 0 0 -1
vn 1 0 0
vn 0 0 1
vn -1 0 0
vn 0 1 0
vn 0 -1 0
usemtl m_9b34ceee-209d-bb5b-f8b8-8a3dd3a76a11
f 396/1180/295 399/1179/295 397/1178/295 394/1177/295
f 395/1184/296 396/1183/296 394/1182/296 393/1181/296
f 400/1188/297 395/1187/297 393/1186/297 398/1185/297
f 399/1192/298 400/1191/298 398/1190/298 397/1189/298
f 398/1196/299 393/1195/299 394/1194/299 397/1193/299
f 399/1200/300 396/1199/300 395/1198/300 400/1197/300
o cube
v 0.09375 0.625 0.09375
v 0.09375 0.625 -0.09375
v 0.09375 0.5 0.09375
v 0.09375 0.5 -0.09375
v -0.09375 0.625 -0.09375
v -0.09375 0.625 0.09375
v -0.09375 0.5 -0.09375
v -0.09375 0.5 0.09375
vt 0.515625 0.96875
vt 0.5625 0.96875
vt 0.5625 0.9375
vt 0.515625 0.9375
vt 0.046875 0.484375
vt 0.09375 0.484375
vt 0.09375 0.453125
vt 0.046875 0.453125
vt 0.515625 0.9375
vt 0.5625 0.9375
vt 0.5625 0.90625
vt 0.515625 0.90625
vt 0.515625 0.90625
vt 0.5625 0.90625
vt 0.5625 0.875
vt 0.515625 0.875
vt 0.375 0.484375
vt 0.328125 0.484375
vt 0.328125 0.53125
vt 0.375 0.53125
vt 0.421875 0.53125
vt 0.375 0.53125
vt 0.375 0.484375
vt 0.421875 0.484375
vn 0 0 -1
vn 1 0 0
vn 0 0 1
vn -1 0 0
vn 0 1 0
vn 0 -1 0
usemtl m_9b34ceee-209d-bb5b-f8b8-8a3dd3a76a11
f 404/1204/301 407/1203/301 405/1202/301 402/1201/301
f 403/1208/302 404/1207/302 402/1206/302 401/1205/302
f 408/1212/303 403/1211/303 401/1210/303 406/1209/303
f 407/1216/304 408/1215/304 406/1214/304 405/1213/304
f 406/1220/305 401/1219/305 402/1218/305 405/1217/305
f 407/1224/306 404/1223/306 403/1222/306 408/1221/306
o cube
v 0.09218749999999998 0.6875 0.09218749999999998
v 0.09218749999999998 0.6875 -0.09218749999999998
v 0.09218749999999998 0.625 0.09218749999999998
v 0.09218749999999998 0.625 -0.09218749999999998
v -0.09218749999999998 0.6875 -0.09218749999999998
v -0.09218749999999998 0.6875 0.09218749999999998
v -0.09218749999999998 0.625 -0.09218749999999998
v -0.09218749999999998 0.625 0.09218749999999998
vt 0.421875 0.46875
vt 0.46875 0.46875
vt 0.46875 0.453125
vt 0.421875 0.453125
vt 0.46875 0.46875
vt 0.515625 0.46875
vt 0.515625 0.453125
vt 0.46875 0.453125
vt 0.515625 0.46875
vt 0.5625 0.46875
vt 0.5625 0.453125
vt 0.515625 0.453125
vt 0 0.453125
vt 0.046875 0.453125
vt 0.046875 0.4375
vt 0 0.4375
vt 0.140625 0.46875
vt 0.09375 0.46875
vt 0.09375 0.515625
vt 0.140625 0.515625
vt 0.1875 0.515625
vt 0.140625 0.515625
vt 0.140625 0.46875
vt 0.1875 0.46875
vn 0 0 -1
vn 1 0 0
vn 0 0 1
vn -1 0 0
vn 0 1 0
vn 0 -1 0
usemtl m_9b34ceee-209d-bb5b-f8b8-8a3dd3a76a11
f 412/1228/307 415/1227/307 413/1226/307 410/1225/307
f 411/1232/308 412/1231/308 410/1230/308 409/1229/308
f 416/1236/309 411/1235/309 409/1234/309 414/1233/309
f 415/1240/310 416/1239/310 414/1238/310 413/1237/310
f 414/1244/311 409/1243/311 410/1242/311 413/1241/311
f 415/1248/312 412/1247/312 411/1246/312 416/1245/312
o cube
v -0.07202446366288501 0.7598780614341312 0.1073797395774392
v -0.10737980525061107 0.7598780594005683 0.07202440304651067
v -0.07872022083205166 0.7171651111012566 0.11407550016104256
v -0.11407556241977772 0.7171651090676936 0.07872016363011404
v -0.12032378308087281 0.7639363021205814 0.08496838249470028
v -0.08496844149314675 0.7639363041541443 0.12032371902562879
v -0.12701954025003948 0.7212233517877067 0.09166414307830364
v -0.0916641986623134 0.7212233538212697 0.12701947960923216
vt 0 0.75
vt 0.0390625 0.75
vt 0.0390625 0.6640625
vt 0 0.6640625
vt 0 1
vt 0.1015625 1
vt 0.1015625 0.9140625
vt 0 0.9140625
vt 0.25 1
vt 0.2890625 1
vt 0.2890625 0.9140625
vt 0.25 0.9140625
vt 0 0.875
vt 0.1015625 0.875
vt 0.1015625 0.7890625
vt 0 0.7890625
vt 0.1640625 0.8984375
vt 0.125 0.8984375
vt 0.125 1
vt 0.1640625 1
vt 0.1640625 0.875
vt 0.125 0.875
vt 0.125 0.7734375
vt 0.1640625 0.7734375
vn -0.7071068317545207 -4.067125765339075e-8 -0.7071067306185697
vn 0.690345484280625 -0.2164396117340313 -0.6903455705701104
vn 0.7071068317545207 4.067125765339075e-8 0.7071067306185697
vn -0.690345484280625 0.2164396117340313 0.6903455705701104
vn 0.1530458781523809 0.9762960076085635 -0.15304595619664849
vn -0.1530458781523809 -0.9762960076085635 0.15304595619664849
usemtl m_56bd5c19-06d1-8de3-e314-18b0770c939f
f 420/1252/313 423/1251/313 421/1250/313 418/1249/313
f 419/1256/314 420/1255/314 418/1254/314 417/1253/314
f 424/1260/315 419/1259/315 417/1258/315 422/1257/315
f 423/1264/316 424/1263/316 422/1262/316 421/1261/316
f 422/1268/317 417/1267/317 418/1266/317 421/1265/317
f 423/1272/318 420/1271/318 419/1270/318 424/1269/318
o cube
v -0.10016052620666839 0.7853000206520786 0.07806337460319102
v -0.1045799439051342 0.7853000203978833 0.0736439575368249
v -0.1039866731604779 0.7608926204618646 0.08188952350810721
v -0.1084060908589437 0.7608926202076692 0.0774701064417411
v -0.111051932820265 0.7873291417578897 0.08011594726091961
v -0.10663251512179918 0.7873291420120851 0.08453536432728574
v -0.1148780797740745 0.7629217415676758 0.08394209616583581
v -0.11045866207560869 0.7629217418218711 0.08836151323220194
vt 0.375 1
vt 0.390625 1
vt 0.390625 0.953125
vt 0.375 0.953125
vt 0.125 0.625
vt 0.140625 0.625
vt 0.140625 0.578125
vt 0.125 0.578125
vt 0.375 0.875
vt 0.390625 0.875
vt 0.390625 0.828125
vt 0.375 0.828125
vt 0.25 0.625
vt 0.265625 0.625
vt 0.265625 0.578125
vt 0.25 0.578125
vt 0.265625 0.484375
vt 0.25 0.484375
vt 0.25 0.5
vt 0.265625 0.5
vt 0.515625 0.75
vt 0.5 0.75
vt 0.5 0.734375
vt 0.515625 0.734375
vn -0.7071068317545207 -4.067125765339075e-8 -0.7071067306185697
vn 0.690345484280625 -0.2164396117340313 -0.6903455705701104
vn 0.7071068317545207 4.067125765339075e-8 0.7071067306185697
vn -0.690345484280625 0.2164396117340313 0.6903455705701104
vn 0.1530458781523809 0.9762960076085635 -0.15304595619664849
vn -0.1530458781523809 -0.9762960076085635 0.15304595619664849
usemtl m_56bd5c19-06d1-8de3-e314-18b0770c939f
f 428/1276/319 431/1275/319 429/1274/319 426/1273/319
f 427/1280/320 428/1279/320 426/1278/320 425/1277/320
f 432/1284/321 427/1283/321 425/1282/321 430/1281/321
f 431/1288/322 432/1287/322 430/1286/322 429/1285/322
f 430/1292/323 425/1291/323 426/1290/323 429/1289/323
f 431/1296/324 428/1295/324 427/1294/324 432/1293/324
o cube
v -0.09699428061898308 0.7914018708267299 0.07931654591014502
v -0.1014136983174489 0.7914018705725345 0.07489712884377889
v -0.09795081735743548 0.7853000207791763 0.08027308313637407
v -0.10237023505590129 0.7853000205249809 0.07585366607000796
v -0.1078856872325797 0.7934309919325411 0.08136911856787361
v -0.10346626953411388 0.7934309921867364 0.08578853563423974
v -0.10884222397103209 0.7873291418849874 0.08232565579410268
v -0.10442280627256627 0.7873291421391828 0.08674507286046881
vt 0.375 0.5
vt 0.390625 0.5
vt 0.390625 0.484375
vt 0.375 0.484375
vt 0.5 0.625
vt 0.515625 0.625
vt 0.515625 0.609375
vt 0.5 0.609375
vt 0.5 0.5
vt 0.515625 0.5
vt 0.515625 0.484375
vt 0.5 0.484375
vt 0 0.375
vt 0.015625 0.375
vt 0.015625 0.359375
vt 0 0.359375
vt 0.640625 0.984375
vt 0.625 0.984375
vt 0.625 1
vt 0.640625 1
vt 0.140625 0.375
vt 0.125 0.375
vt 0.125 0.359375
vt 0.140625 0.359375
vn -0.7071068317545207 -4.067125765339075e-8 -0.7071067306185697
vn 0.690345484280625 -0.2164396117340313 -0.6903455705701104
vn 0.7071068317545207 4.067125765339075e-8 0.7071067306185697
vn -0.690345484280625 0.2164396117340313 0.6903455705701104
vn 0.1530458781523809 0.9762960076085635 -0.15304595619664849
vn -0.1530458781523809 -0.9762960076085635 0.15304595619664849
usemtl m_56bd5c19-06d1-8de3-e314-18b0770c939f
f 436/1300/325 439/1299/325 437/1298/325 434/1297/325
f 435/1304/326 436/1303/326 434/1302/326 433/1301/326
f 440/1308/327 435/1307/327 433/1306/327 438/1305/327
f 439/1312/328 440/1311/328 438/1310/328 437/1309/328
f 438/1316/329 433/1315/329 434/1314/329 437/1313/329
f 439/1320/330 436/1319/330 435/1318/330 440/1317/330
o cube
v -0.07489719212665431 0.7914018720977066 0.10141363124197532
v -0.09699428061898308 0.7914018708267299 0.07931654591014502
v -0.0758537288651067 0.785300022050153 0.10237016846820438
v -0.09795081735743548 0.7853000207791763 0.08027308313637407
v -0.10346626953411388 0.7934309921867364 0.08578853563423974
v -0.08136918104178512 0.7934309934577132 0.10788562096607004
v -0.10442280627256627 0.7873291421391828 0.08674507286046881
v -0.0823257177802375 0.7873291434101596 0.1088421581922991
vt 0.125 0.5
vt 0.140625 0.5
vt 0.140625 0.484375
vt 0.125 0.484375
vt 0.125 0.75
vt 0.1875 0.75
vt 0.1875 0.734375
vt 0.125 0.734375
vt 0.5 0.875
vt 0.515625 0.875
vt 0.515625 0.859375
vt 0.5 0.859375
vt 0.25 0.875
vt 0.3125 0.875
vt 0.3125 0.859375
vt 0.25 0.859375
vt 0.265625 0.6875
vt 0.25 0.6875
vt 0.25 0.75
vt 0.265625 0.75
vt 0.015625 0.625
vt 0 0.625
vt 0 0.5625
vt 0.015625 0.5625
vn -0.7071068317545207 -4.067125765339075e-8 -0.7071067306185697
vn 0.690345484280625 -0.2164396117340313 -0.6903455705701104
vn 0.7071068317545207 4.067125765339075e-8 0.7071067306185697
vn -0.690345484280625 0.2164396117340313 0.6903455705701104
vn 0.1530458781523809 0.9762960076085635 -0.15304595619664849
vn -0.1530458781523809 -0.9762960076085635 0.15304595619664849
usemtl m_56bd5c19-06d1-8de3-e314-18b0770c939f
f 444/1324/331 447/1323/331 445/1322/331 442/1321/331
f 443/1328/332 444/1327/332 442/1326/332 441/1325/332
f 448/1332/333 443/1331/333 441/1330/333 446/1329/333
f 447/1336/334 448/1335/334 446/1334/334 445/1333/334
f 446/1340/335 441/1339/335 442/1338/335 445/1337/335
f 447/1344/336 444/1343/336 443/1342/336 448/1341/336
o cube
v -0.07364402001587379 0.7853000221772507 0.10457987700138745
v -0.07806343771433961 0.7853000219230554 0.10016045993502132
v -0.0774701669696833 0.7608926219870368 0.10840602590630365
v -0.08188958466814912 0.7608926217328413 0.10398660883993752
v -0.08453542662947042 0.7873291432830619 0.10663244965911604
v -0.0801160089310046 0.7873291435372572 0.11105186672548217
v -0.08836157358327992 0.7629217430928479 0.11045859856403224
v -0.0839421558848141 0.7629217433470432 0.11487801563039837
vt 0.375 0.75
vt 0.390625 0.75
vt 0.390625 0.703125
vt 0.375 0.703125
vt 0.375 0.625
vt 0.390625 0.625
vt 0.390625 0.578125
vt 0.375 0.578125
vt 0 0.5
vt 0.015625 0.5
vt 0.015625 0.453125
vt 0 0.453125
vt 0.5 1
vt 0.515625 1
vt 0.515625 0.953125
vt 0.5 0.953125
vt 0.640625 0.859375
vt 0.625 0.859375
vt 0.625 0.875
vt 0.640625 0.875
vt 0.265625 0.375
vt 0.25 0.375
vt 0.25 0.359375
vt 0.265625 0.359375
vn -0.7071068317545207 -4.067125765339075e-8 -0.7071067306185697
vn 0.690345484280625 -0.2164396117340313 -0.6903455705701104
vn 0.7071068317545207 4.067125765339075e-8 0.7071067306185697
vn -0.690345484280625 0.2164396117340313 0.6903455705701104
vn 0.1530458781523809 0.9762960076085635 -0.15304595619664849
vn -0.1530458781523809 -0.9762960076085635 0.15304595619664849
usemtl m_56bd5c19-06d1-8de3-e314-18b0770c939f
f 452/1348/337 455/1347/337 453/1346/337 450/1345/337
f 451/1352/338 452/1351/338 450/1350/338 449/1349/338
f 456/1356/339 451/1355/339 449/1354/339 454/1353/339
f 455/1360/340 456/1359/340 454/1358/340 453/1357/340
f 454/1364/341 449/1363/341 450/1362/341 453/1361/341
f 455/1368/342 452/1367/342 451/1366/342 456/1365/342
o cube
v 0.15395778937980054 1.4692178014078794 -0.17930925359185018
v 0.15395778937980054 1.4692178014078794 -0.17930925359185018
v 0.06092606508628279 1.2440186160200144 -0.17263934537532782
v 0.06092606508628279 1.2440186160200144 -0.17263934537532782
v 0.15867522870346068 1.4691148170912185 -0.1169876268443229
v 0.15867522870346068 1.4691148170912185 -0.1169876268443229
v 0.06564350440994292 1.2439156317033535 -0.11031771862780054
v 0.06564350440994292 1.2439156317033535 -0.11031771862780054
vt 0.375 1
vt 0.5 1
vt 0.5 0.515625
vt 0.375 0.515625
vt 0 1
vt 0 1
vt 0 0.515625
vt 0 0.515625
vt 0.375 1
vt 0.5 1
vt 0.5 0.515625
vt 0.375 0.515625
vt 0 1
vt 0 1
vt 0 0.515625
vt 0 0.515625
vt 0.125 1
vt 0 1
vt 0 1
vt 0.125 1
vt 0.125 1
vt 0 1
vt 0 1
vt 0.125 1
vn -0.9212122374334268 0.38264472841224595 0.07036352337126414
vn -0.07547902917856197 0.001647749066575492 -0.9971460279604365
vn 0.9212122374334268 -0.38264472841224595 -0.07036352337126414
vn 0.07547902917856197 -0.001647749066575492 0.9971460279604365
vn 0.3816686124862267 0.923894093898934 -0.027363726016502023
vn -0.3816686124862267 -0.923894093898934 0.027363726016502023
usemtl m_4a132e1c-73b6-67e3-2f93-4db8c8afaeb4
f 460/1372/343 463/1371/343 461/1370/343 458/1369/343
f 459/1376/344 460/1375/344 458/1374/344 457/1373/344
f 464/1380/345 459/1379/345 457/1378/345 462/1377/345
f 463/1384/346 464/1383/346 462/1382/346 461/1381/346
f 462/1388/347 457/1387/347 458/1386/347 461/1385/347
f 463/1392/348 460/1391/348 459/1390/348 464/1389/348
o cube
v 0.11971861883693818 1.1329179173539987 0.21988882450732972
v 0.11971861883693818 1.1329179173539987 0.21988882450732972
v 0.11828628974022425 1.015051305521884 0.16216558180063204
v 0.11828628974022425 1.015051305521884 0.16216558180063204
v 0.05763009619962603 1.1366614559812453 0.21378544222679954
v 0.05763009619962603 1.1366614559812453 0.21378544222679954
v 0.05619776710291209 1.0187948441491306 0.15606219952010186
v 0.05619776710291209 1.0187948441491306 0.15606219952010186
vt 0.515625 1
vt 0.640625 1
vt 0.640625 0.515625
vt 0.515625 0.515625
vt 0 1
vt 0 1
vt 0 0.515625
vt 0 0.515625
vt 0.515625 1
vt 0.640625 1
vt 0.640625 0.515625
vt 0.515625 0.515625
vt 0 1
vt 0 1
vt 0 0.515625
vt 0 0.515625
vt 0.125 1
vt 0 1
vt 0 1
vt 0.125 1
vt 0.125 1
vt 0 1
vt 0 1
vt 0.125 1
vn 0.11403875704499344 0.435834978677649 -0.8927726660537307
vn 0.9934163621969945 -0.059896618035946064 0.09765411648848285
vn -0.11403875704499344 -0.435834978677649 0.8927726660537307
vn -0.9934163621969945 0.059896618035946064 -0.09765411648848285
vn 0.010912983594010967 0.8980313282446829 0.43979613490817265
vn -0.010912983594010967 -0.8980313282446829 -0.43979613490817265
usemtl m_4a132e1c-73b6-67e3-2f93-4db8c8afaeb4
f 468/1396/349 471/1395/349 469/1394/349 466/1393/349
f 467/1400/350 468/1399/350 466/1398/350 465/1397/350
f 472/1404/351 467/1403/351 465/1402/351 470/1401/351
f 471/1408/352 472/1407/352 470/1406/352 469/1405/352
f 470/1412/353 465/1411/353 466/1410/353 469/1409/353
f 471/1416/354 468/1415/354 467/1414/354 472/1413/354
o cube
v 0.12487999999999999 1.75692 -0.11608687499999998
v 0.12487999999999999 1.75692 -0.17858687499999998
v 0.12487999999999999 1.75692 -0.11608687499999998
v 0.12487999999999999 1.75692 -0.17858687499999998
v -0.12512 1.75692 -0.17858687499999998
v -0.12512 1.75692 -0.11608687499999998
v -0.12512 1.75692 -0.17858687499999998
v -0.12512 1.75692 -0.11608687499999998
vt 0 0.515625
vt 0 1
vt 0 1
vt 0 0.515625
vt 0 1
vt 0.125 1
vt 0.125 1
vt 0 1
vt 0 1
vt 0 0.515625
vt 0 0.515625
vt 0 1
vt 0.125 1
vt 0 1
vt 0 1
vt 0.125 1
vt 0.5 1
vt 0.5 0.515625
vt 0.375 0.515625
vt 0.375 1
vt 0.5 1
vt 0.5 0.515625
vt 0.375 0.515625
vt 0.375 1
vn 0 0 -1
vn 1 0 0
vn 0 0 1
vn -1 0 0
vn 0 1 0
vn 0 -1 0
usemtl m_4a132e1c-73b6-67e3-2f93-4db8c8afaeb4
f 476/1420/355 479/1419/355 477/1418/355 474/1417/355
f 475/1424/356 476/1423/356 474/1422/356 473/1421/356
f 480/1428/357 475/1427/357 473/1426/357 478/1425/357
f 479/1432/358 480/1431/358 478/1430/358 477/1429/358
f 478/1436/359 473/1435/359 474/1434/359 477/1433/359
f 479/1440/360 476/1439/360 475/1438/360 480/1437/360
o cube
v 0.12566999999999995 1.63762 -0.11608687499999998
v 0.12566999999999995 1.63762 -0.17858687499999998
v 0.12566999999999995 1.63762 -0.11608687499999998
v 0.12566999999999995 1.63762 -0.17858687499999998
v 0.12566999999999992 1.75637 -0.17858687499999998
v 0.12566999999999992 1.75637 -0.11608687499999998
v 0.12566999999999992 1.75637 -0.17858687499999998
v 0.12566999999999992 1.75637 -0.11608687499999998
vt 0 0.515625
vt 0 1
vt 0 1
vt 0 0.515625
vt 0 1
vt 0.125 1
vt 0.125 1
vt 0 1
vt 0 1
vt 0 0.515625
vt 0 0.515625
vt 0 1
vt 0.125 1
vt 0 1
vt 0 1
vt 0.125 1
vt 0.5 1
vt 0.5 0.515625
vt 0.375 0.515625
vt 0.375 1
vt 0.5 1
vt 0.5 0.515625
vt 0.375 0.515625
vt 0.375 1
vn 0 0 -1
vn 2.220446049250313e-16 -1 0
vn 0 0 1
vn -2.220446049250313e-16 1 0
vn 1 2.220446049250313e-16 0
vn -1 -2.220446049250313e-16 0
usemtl m_4a132e1c-73b6-67e3-2f93-4db8c8afaeb4
f 484/1444/361 487/1443/361 485/1442/361 482/1441/361
f 483/1448/362 484/1447/362 482/1446/362 481/1445/362
f 488/1452/363 483/1451/363 481/1450/363 486/1449/363
f 487/1456/364 488/1455/364 486/1454/364 485/1453/364
f 486/1460/365 481/1459/365 482/1458/365 485/1457/365
f 487/1464/366 484/1463/366 483/1462/366 488/1461/366
o cube
v -0.12589250000000007 1.63762 -0.11608687499999998
v -0.12589250000000007 1.63762 -0.17858687499999998
v -0.12589250000000007 1.63762 -0.11608687499999998
v -0.12589250000000007 1.63762 -0.17858687499999998
v -0.1258925000000001 1.75637 -0.17858687499999998
v -0.1258925000000001 1.75637 -0.11608687499999998
v -0.1258925000000001 1.75637 -0.17858687499999998
v -0.1258925000000001 1.75637 -0.11608687499999998
vt 0 0.515625
vt 0 1
vt 0 1
vt 0 0.515625
vt 0 1
vt 0.125 1
vt 0.125 1
vt 0 1
vt 0 1
vt 0 0.515625
vt 0 0.515625
vt 0 1
vt 0.125 1
vt 0 1
vt 0 1
vt 0.125 1
vt 0.5 1
vt 0.5 0.515625
vt 0.375 0.515625
vt 0.375 1
vt 0.5 1
vt 0.5 0.515625
vt 0.375 0.515625
vt 0.375 1
vn 0 0 -1
vn 2.220446049250313e-16 -1 0
vn 0 0 1
vn -2.220446049250313e-16 1 0
vn 1 2.220446049250313e-16 0
vn -1 -2.220446049250313e-16 0
usemtl m_4a132e1c-73b6-67e3-2f93-4db8c8afaeb4
f 492/1468/367 495/1467/367 493/1466/367 490/1465/367
f 491/1472/368 492/1471/368 490/1470/368 489/1469/368
f 496/1476/369 491/1475/369 489/1474/369 494/1473/369
f 495/1480/370 496/1479/370 494/1478/370 493/1477/370
f 494/1484/371 489/1483/371 490/1482/371 493/1481/371
f 495/1488/372 492/1487/372 491/1486/372 496/1485/372
o cube
v 0.063501837530026 1.2437046117001211 -0.1714758943561489
v 0.063501837530026 1.2437046117001211 -0.1714758943561489
v -0.020816496644852883 0.8712777650122838 -0.10555994493472542
v -0.020816496644852883 0.8712777650122838 -0.10555994493472542
v 0.0690032076672896 1.2533451375539721 -0.10996942975384831
v 0.0690032076672896 1.2533451375539721 -0.10996942975384831
v -0.015315126507589275 0.8809182908661348 -0.04405348033242484
v -0.015315126507589275 0.8809182908661348 -0.04405348033242484
vt 0.125 1
vt 0.25 1
vt 0.25 0.21875
vt 0.125 0.21875
vt 0 1
vt 0 1
vt 0 0.21875
vt 0 0.21875
vt 0.125 1
vt 0.25 1
vt 0.25 0.21875
vt 0.125 0.21875
vt 0 1
vt 0 1
vt 0 0.21875
vt 0 0.21875
vt 0.125 1
vt 0 1
vt 0 1
vt 0.125 1
vt 0.125 1
vt 0 1
vt 0 1
vt 0.125 1
vn -0.972061856096217 0.22910970516515242 0.05103421324870793
vn -0.08802192219621757 -0.1542484136616172 -0.9841034336368092
vn 0.972061856096217 -0.22910970516515242 -0.05103421324870793
vn 0.08802192219621757 0.1542484136616172 0.9841034336368092
vn 0.21759570109646148 0.96110153983958 -0.17010567592625409
vn -0.21759570109646148 -0.96110153983958 0.17010567592625409
usemtl m_4a132e1c-73b6-67e3-2f93-4db8c8afaeb4
f 500/1492/373 503/1491/373 501/1490/373 498/1489/373
f 499/1496/374 500/1495/374 498/1494/374 497/1493/374
f 504/1500/375 499/1499/375 497/1498/375 502/1497/375
f 503/1504/376 504/1503/376 502/1502/376 501/1501/376
f 502/1508/377 497/1507/377 498/1506/377 501/1505/377
f 503/1512/378 500/1511/378 499/1510/378 504/1509/378
o cube
v -0.1762299312260629 1.0840530096248364 -0.07557600901870719
v -0.1762299312260629 1.0840530096248364 -0.07557600901870719
v -0.14982224837689637 1.4569045908639056 -0.1777551783932123
v -0.14982224837689637 1.4569045908639056 -0.1777551783932123
v -0.18462274310087756 1.100974514334294 -0.015998551979976683
v -0.18462274310087756 1.100974514334294 -0.015998551979976683
v -0.15821506025171106 1.473826095573363 -0.11817772135448179
v -0.15821506025171106 1.473826095573363 -0.11817772135448179
vt 0.25 1
vt 0.125 1
vt 0.125 0.21875
vt 0.25 0.21875
vt 0 1
vt 0 1
vt 0 0.21875
vt 0 0.21875
vt 0.25 1
vt 0.125 1
vt 0.125 0.21875
vt 0.25 0.21875
vt 0 1
vt 0 1
vt 0 0.21875
vt 0 0.21875
vt 0.125 1
vt 0 1
vt 0 1
vt 0.125 1
vt 0.125 1
vt 0 1
vt 0 1
vt 0.125 1
vn 0.9885966186889295 -0.02955280699266445 0.14765959879286567
vn 0.13428498999703503 -0.2707440753513194 -0.9532393126196881
vn -0.9885966186889295 0.02955280699266445 -0.14765959879286567
vn -0.13428498999703503 0.2707440753513194 0.9532393126196881
vn -0.06814885896559103 -0.9621976290040489 0.2636881790309809
vn 0.06814885896559103 0.9621976290040489 -0.2636881790309809
usemtl m_4a132e1c-73b6-67e3-2f93-4db8c8afaeb4
f 508/1516/379 511/1515/379 509/1514/379 506/1513/379
f 507/1520/380 508/1519/380 506/1518/380 505/1517/380
f 512/1524/381 507/1523/381 505/1522/381 510/1521/381
f 511/1528/382 512/1527/382 510/1526/382 509/1525/382
f 510/1532/383 505/1531/383 506/1530/383 509/1529/383
f 511/1536/384 508/1535/384 507/1534/384 512/1533/384
o cube
v -0.08131755565082732 0.7672044712283292 0.06422362830194134
v -0.08131755565082732 0.7672044712283292 0.06422362830194134
v -0.1615147885297446 0.8711657909223123 0.023398417389440956
v -0.1615147885297446 0.8711657909223123 0.023398417389440956
v -0.08971036752564202 0.7841259759377867 0.12380108534067183
v -0.08971036752564202 0.7841259759377867 0.12380108534067183
v -0.16990760040455932 0.8880872956317698 0.08297587442817145
v -0.16990760040455932 0.8880872956317698 0.08297587442817145
vt 1 1
vt 0.875 1
vt 0.875 0.671875
vt 1 0.671875
vt 0 1
vt 0 1
vt 0 0.21875
vt 0 0.21875
vt 1 1
vt 0.875 1
vt 0.875 0.671875
vt 1 0.671875
vt 0 1
vt 0 1
vt 0 0.21875
vt 0 0.21875
vt 0.125 1
vt 0 1
vt 0 1
vt 0.125 1
vt 0.125 1
vt 0 1
vt 0 1
vt 0.125 1
vn 0.8011141883902227 0.5958499504182703 -0.05638167917346776
vn 0.13428498999703503 -0.2707440753513195 -0.9532393126196881
vn -0.8011141883902227 -0.5958499504182703 0.05638167917346776
vn -0.13428498999703503 0.2707440753513195 0.9532393126196881
vn 0.5832526027557624 -0.7560823250471499 0.2969106248181848
vn -0.5832526027557624 0.7560823250471499 -0.2969106248181848
usemtl m_4a132e1c-73b6-67e3-2f93-4db8c8afaeb4
f 516/1540/385 519/1539/385 517/1538/385 514/1537/385
f 515/1544/386 516/1543/386 514/1542/386 513/1541/386
f 520/1548/387 515/1547/387 513/1546/387 518/1545/387
f 519/1552/388 520/1551/388 518/1550/388 517/1549/388
f 518/1556/389 513/1555/389 514/1554/389 517/1553/389
f 519/1560/390 516/1559/390 515/1558/390 520/1557/390
o cube
v 0.04027274142111234 1.7032816500572234 0.38920758846650744
v 0.04027274142111234 1.7032816500572234 0.38920758846650744
v 0.036501680481147325 1.566432387275185 0.40202587132341644
v 0.036501680481147325 1.566432387275185 0.40202587132341644
v 0.10172097175945834 1.7026562260093023 0.4006081951629012
v 0.10172097175945834 1.7026562260093023 0.4006081951629012
v 0.09794991081949332 1.565806963227264 0.4134264780198102
v 0.09794991081949332 1.565806963227264 0.4134264780198102
vt 1 1
vt 0.875 1
vt 0.875 0.671875
vt 1 0.671875
vt 0 1
vt 0 1
vt 0 0.21875
vt 0 0.21875
vt 1 1
vt 0.875 1
vt 0.875 0.671875
vt 1 0.671875
vt 0 1
vt 0 1
vt 0 0.21875
vt 0 0.21875
vt 0.125 1
vt 0 1
vt 0 1
vt 0.125 1
vt 0.125 1
vt 0 1
vt 0 1
vt 0.125 1
vn -0.18061355744787652 0.09665782459788673 0.9787931384158898
vn -0.9831716854135357 0.010006784766737952 -0.18240970714230023
vn 0.18061355744787652 -0.09665782459788673 -0.9787931384158898
vn 0.9831716854135357 -0.010006784766737952 0.18240970714230023
vn 0.02742589774520008 0.9952673656875506 -0.0932238753229744
vn -0.02742589774520008 -0.9952673656875506 0.0932238753229744
usemtl m_4a132e1c-73b6-67e3-2f93-4db8c8afaeb4
f 524/1564/391 527/1563/391 525/1562/391 522/1561/391
f 523/1568/392 524/1567/392 522/1566/392 521/1565/392
f 528/1572/393 523/1571/393 521/1570/393 526/1569/393
f 527/1576/394 528/1575/394 526/1574/394 525/1573/394
f 526/1580/395 521/1579/395 522/1578/395 525/1577/395
f 527/1584/396 524/1583/396 523/1582/396 528/1581/396
o cube
v 0.046529143038430046 0.911842489078115 0.07881712280011653
v 0.046529143038430046 0.911842489078115 0.07881712280011653
v 0.057208642085434566 1.023650376268564 0.15813417432192275
v 0.057208642085434566 1.023650376268564 0.15813417432192275
v 0.1081486747441817 0.9025540345577296 0.0836137804892369
v 0.1081486747441817 0.9025540345577296 0.0836137804892369
v 0.11882817379118622 1.0143619217481785 0.1629308320110431
v 0.11882817379118622 1.0143619217481785 0.1629308320110431
vt 1 1
vt 0.875 1
vt 0.875 0.671875
vt 1 0.671875
vt 0 1
vt 0 1
vt 0 0.21875
vt 0 0.21875
vt 1 1
vt 0.875 1
vt 0.875 0.671875
vt 1 0.671875
vt 0 1
vt 0 1
vt 0 0.21875
vt 0 0.21875
vt 0.125 1
vt 0 1
vt 0 1
vt 0.125 1
vt 0.125 1
vt 0 1
vt 0 1
vt 0.125 1
vn 0.14813521309646352 0.5627640633989714 -0.8132358622119071
vn -0.9859125072920267 0.14861527232616664 -0.07674652302592584
vn -0.14813521309646352 -0.5627640633989714 0.8132358622119071
vn 0.9859125072920267 -0.14861527232616664 0.07674652302592584
vn -0.07766908397821475 -0.8131482704759927 -0.5768512837949545
vn 0.07766908397821475 0.8131482704759927 0.5768512837949545
usemtl m_4a132e1c-73b6-67e3-2f93-4db8c8afaeb4
f 532/1588/397 535/1587/397 533/1586/397 530/1585/397
f 531/1592/398 532/1591/398 530/1590/398 529/1589/398
f 536/1596/399 531/1595/399 529/1594/399 534/1593/399
f 535/1600/400 536/1599/400 534/1598/400 533/1597/400
f 534/1604/401 529/1603/401 530/1602/401 533/1601/401
f 535/1608/402 532/1607/402 531/1606/402 536/1605/402
o cube
v 0.047719665265777096 1.3307716274012256 0.3457205322864318
v 0.047719665265777096 1.3307716274012256 0.3457205322864318
v 0.03536619043524272 1.5659833355838073 0.408465304924822
v 0.03536619043524272 1.5659833355838073 0.408465304924822
v 0.11013364256406998 1.3340496508618158 0.3457205322864318
v 0.11013364256406998 1.3340496508618158 0.3457205322864318
v 0.0977801677335356 1.5692613590443976 0.408465304924822
v 0.0977801677335356 1.5692613590443976 0.408465304924822
vt 0.5 1
vt 0.375 1
vt 0.375 0.515625
vt 0.5 0.515625
vt 0 1
vt 0 1
vt 0 0.515625
vt 0 0.515625
vt 0.5 1
vt 0.375 1
vt 0.375 0.515625
vt 0.5 0.515625
vt 0 1
vt 0 1
vt 0 0.515625
vt 0 0.515625
vt 0.125 1
vt 0 1
vt 0 1
vt 0.125 1
vt 0.125 1
vt 0 1
vt 0 1
vt 0.125 1
vn -0.013500969796138206 0.25706015606410104 -0.9663010917818856
vn -0.9986236367726863 -0.052448375369443606 -1.734723475976807e-18
vn 0.013500969796138206 -0.25706015606410104 0.9663010917818856
vn 0.9986236367726863 0.052448375369443606 1.734723475976807e-18
vn 0.050680922381679504 -0.9649711104926437 -0.2574144518498062
vn -0.050680922381679504 0.9649711104926437 0.2574144518498062
usemtl m_4a132e1c-73b6-67e3-2f93-4db8c8afaeb4
f 540/1612/403 543/1611/403 541/1610/403 538/1609/403
f 539/1616/404 540/1615/404 538/1614/404 537/1613/404
f 544/1620/405 539/1619/405 537/1618/405 542/1617/405
f 543/1624/406 544/1623/406 542/1622/406 541/1621/406
f 542/1628/407 537/1627/407 538/1626/407 541/1625/407
f 543/1632/408 540/1631/408 539/1630/408 544/1629/408
o cube
v 0.057424229801559486 1.1323718730787196 0.21665063368160836
v 0.057424229801559486 1.1323718730787196 0.21665063368160836
v 0.046632092559716 1.3378555179978435 0.34731839536942755
v 0.046632092559716 1.3378555179978435 0.34731839536942755
v 0.11983820709985235 1.1356498965393098 0.21665063368160836
v 0.11983820709985235 1.1356498965393098 0.21665063368160836
v 0.10904606985800888 1.3411335414584338 0.34731839536942755
v 0.10904606985800888 1.3411335414584338 0.34731839536942755
vt 0.5 1
vt 0.375 1
vt 0.375 0.515625
vt 0.5 0.515625
vt 0 1
vt 0 1
vt 0 0.515625
vt 0 0.515625
vt 0.5 1
vt 0.375 1
vt 0.375 0.515625
vt 0.5 0.515625
vt 0 1
vt 0 1
vt 0 0.515625
vt 0 0.515625
vt 0.125 1
vt 0 1
vt 0 1
vt 0.125 1
vt 0.125 1
vt 0 1
vt 0 1
vt 0.125 1
vn -0.028116151030513785 0.5353350374795344 -0.8441717122114523
vn -0.9986236367726862 -0.0524483753694436 -3.469446951953614e-18
vn 0.028116151030513785 -0.5353350374795344 0.8441717122114523
vn 0.9986236367726862 0.0524483753694436 3.469446951953614e-18
vn 0.04427543483833218 -0.8430098253092257 -0.5360728684628473
vn -0.04427543483833218 0.8430098253092257 0.5360728684628473
usemtl m_4a132e1c-73b6-67e3-2f93-4db8c8afaeb4
f 548/1636/409 551/1635/409 549/1634/409 546/1633/409
f 547/1640/410 548/1639/410 546/1638/410 545/1637/410
f 552/1644/411 547/1643/411 545/1642/411 550/1641/411
f 551/1648/412 552/1647/412 550/1646/412 549/1645/412
f 550/1652/413 545/1651/413 546/1650/413 549/1649/413
f 551/1656/414 548/1655/414 547/1654/414 552/1653/414
o cube
v -0.1608942615839308 0.8636868938361735 0.025930772133274493
v -0.1608942615839308 0.8636868938361735 0.025930772133274493
v -0.17853540740625826 1.0838271510597064 -0.07722503053255836
v -0.17853540740625826 1.0838271510597064 -0.07722503053255836
v -0.16711204520099285 0.8896658320572467 0.08243461214257883
v -0.16711204520099285 0.8896658320572467 0.08243461214257883
v -0.18475319102332027 1.1098060892807797 -0.020721190523254024
v -0.18475319102332027 1.1098060892807797 -0.020721190523254024
vt 0.5 1
vt 0.375 1
vt 0.375 0.515625
vt 0.5 0.515625
vt 0 1
vt 0 1
vt 0 0.515625
vt 0 0.515625
vt 0.5 1
vt 0.375 1
vt 0.375 0.515625
vt 0.5 0.515625
vt 0 1
vt 0 1
vt 0 0.515625
vt 0 0.515625
vt 0.125 1
vt 0 1
vt 0 1
vt 0.125 1
vt 0.125 1
vt 0 1
vt 0 1
vt 0.125 1
vn 0.9924035674825173 0.10753266484158978 0.05976525110830711
vn 0.09948453787299268 -0.41566301153717056 -0.9040614401488691
vn -0.9924035674825173 -0.10753266484158978 -0.05976525110830711
vn -0.09948453787299268 0.41566301153717056 0.9040614401488691
vn 0.07237393157877908 -0.9031395168144932 0.42320329298803167
vn -0.07237393157877908 0.9031395168144932 -0.42320329298803167
usemtl m_4a132e1c-73b6-67e3-2f93-4db8c8afaeb4
f 556/1660/415 559/1659/415 557/1658/415 554/1657/415
f 555/1664/416 556/1663/416 554/1662/416 553/1661/416
f 560/1668/417 555/1667/417 553/1666/417 558/1665/417
f 559/1672/418 560/1671/418 558/1670/418 557/1669/418
f 558/1676/419 553/1675/419 554/1674/419 557/1673/419
f 559/1680/420 556/1679/420 555/1678/420 560/1677/420